<?xml version="1.0" encoding="UTF-8" standalone="no"?>
<svg
   version="1.1"
   width="1.3164201in"
   height="1.1700838in"
   viewBox="0 0 94.782245 84.246031"
   id="svg5"
   xmlns="http://www.w3.org/2000/svg"
   xmlns:svg="http://www.w3.org/2000/svg">
  <defs
     id="defs5" />
  <g
     id="Layer1000"
     transform="translate(-245.4429,-129.37857)"
     style="fill:#ffffff;stroke-width:1.008;stroke-dasharray:none">
    <path
       d="m 284.3263,167.2402 c 0.0954,-0.155 0.4246,-1.4872 0.5059,-1.7791 l 1.663,-5.4938 c 2.2342,0 6.5207,0.8351 8.4486,-0.7314 l 0.7314,-0.6423 -8.602,-0.3613 c 0.0218,-0.2618 2.9662,-9.2738 3.1808,-9.672 0.0684,-0.3203 0.197,-0.6713 0.3095,-1.0051 0.141,-0.4183 0.1674,-0.3053 0.96,-0.4137 3.8941,-0.5308 8.8172,-0.5702 12.605,-0.0368 1.8776,0.2639 2.7142,0.4484 4.4861,0.8631 0,-1.5645 -1.2737,-2.0217 -2.777,-2.355 -2.156,-0.4784 -4.9267,-0.3862 -7.2708,-0.3919 l -7.3735,0.4339 c 0.07,-0.1451 0.126,-0.2851 0.1446,-0.4852 0.1452,-0.2483 0.2022,-0.521 0.3105,-0.7947 0.1058,-0.2669 0.211,-0.5578 0.268,-0.8372 l 0.9399,-2.7982 -0.5785,-0.2167 c -0.224,0.3344 -1.422,2.7672 -1.4458,3.0149 -0.1768,0.2463 -0.2804,0.4769 -0.4033,0.774 -0.1234,0.3001 -0.2965,0.5526 -0.3193,0.8579 -0.071,0.0648 -0.0311,0.003 -0.1208,0.1488 -0.0296,0.0482 -0.0783,0.1591 -0.0928,0.1939 -0.1234,0.2934 10e-4,0.2286 -0.2328,0.3473 l -3.1626,0.5235 c -2.3156,0.4661 -5.3227,1.099 -7.2786,2.4079 -1.3405,0.8979 -1.3887,1.3271 -2.1238,2.7189 0.2613,-0.0606 0.9398,-0.4701 1.3011,-0.6505 2.341,-1.1695 4.7339,-2.0264 7.3144,-2.6609 1.2115,-0.2981 2.114,-0.4505 3.3114,-0.664 -0.0824,0.3545 -0.3302,0.621 -0.3613,1.0258 -0.0114,0.0114 -0.0275,0.0151 -0.0311,0.0368 l -0.2276,0.4858 c -0.0896,0.2296 -0.1379,0.3457 -0.227,0.5681 -0.1654,0.4121 -0.3178,0.7983 -0.4624,1.2001 -0.9134,2.5328 -1.7573,4.7893 -2.594,7.3812 -1.7262,0 -4.0232,0.2395 -5.3409,0.6589 -1.3872,0.4416 -2.6629,1.172 -2.06,2.7666 l 0.2446,0.5505 c 0.2681,-1.1498 1.4925,-1.5894 2.6158,-1.8662 l 4.0346,-0.4474 c -0.1265,0.2634 -0.1929,0.5926 -0.28,0.8766 l -0.8133,2.7288 c -0.1094,0.3411 -0.9932,3.3741 -1.0031,3.7401 -0.197,0.3556 -0.3193,1.0886 -0.4188,1.4883 -0.1307,0.5215 -0.267,1.0067 -0.3764,1.5168 -0.2726,1.0658 -0.5059,1.7988 -0.5059,3.1574 0,0.8434 0.3618,1.4681 0.8641,1.8201 l 2.0896,-0.0653 -0.367,-0.2121 c -0.4899,-0.2825 -0.635,-0.6402 -0.635,-1.5427 0,-0.4608 0.0969,-1.1679 0.1654,-1.6324 0.03,-0.2006 0.0839,-0.5064 0.1233,-0.7438 0.0436,-0.2639 0.1229,-0.5329 0.1452,-0.7812 0.0757,-0.1747 0.1135,-0.4702 0.1731,-0.7081 0.07,-0.281 0.1213,-0.4889 0.197,-0.7424 0.1125,-0.3789 0.3214,-1.1171 0.3525,-1.5546 z"
       style="fill:#ffffff;fill-rule:evenodd;stroke-width:1.008;stroke-dasharray:none"
       id="path1" />
    <path
       d="m 280.5302,199.2378 c -0.169,-0.1949 -0.297,-0.2913 -0.45,-0.5365 -0.5002,-0.8035 -0.5017,-1.4131 -0.7065,-2.4737 0.6625,0 9.6637,0.1104 9.8389,-0.0653 0.2737,-0.2732 -0.2639,-2.1726 -0.5143,-2.6941 -0.0902,-0.3545 -0.6707,-1.1513 -0.9398,-1.3825 -2.3146,-2.7998 -6.9427,-2.129 -8.3848,-0.006 -0.3935,0.3587 -0.5847,0.7574 -0.8678,1.185 -0.974,1.818 -0.8579,4.3658 0.2172,5.9728 0.1446,0.2654 0.3473,0.5433 0.5599,0.7667 0.3245,0.3406 0.2446,0.3717 0.6687,0.6236 0.5007,0.8046 2.4348,1.239 3.6141,1.2374 1.0938,-10e-4 2.1384,-0.1773 2.9792,-0.7076 0.2104,-0.1327 0.5873,-0.3525 0.7076,-0.5298 0.7013,-0.4162 1.2436,-1.4152 1.6624,-2.0875 l -1.3011,-0.6506 c -0.1052,0.395 -0.8382,1.2483 -1.1368,1.5376 -0.9938,0.9636 -2.9019,1.3229 -4.2699,0.9056 -0.4972,-0.1524 -1.4655,-0.7076 -1.677,-1.0954 z M 263.8321,189.16 v -0.8445 -0.184 h 6.4336 c 0,-1.8423 0.2623,-1.5183 -1.2291,-1.5178 l -6.2973,-0.009 c -0.6065,0.005 -0.425,0.0528 -0.425,1.7106 v 0.8445 1.708 6.0055 1.7516 1.6485 1.3027 h 1.5178 v -1.3027 -1.6485 -1.7516 -2.5976 h 3.8314 v -1.5184 h -3.8314 v -1.8895 z m 45.1064,3.4099 c 0.1675,-0.2494 0.366,-0.4806 0.4334,-0.7786 0.1804,-0.0876 0.7185,-1.0383 0.8678,-1.2747 h -8.1687 v 1.3022 l 5.6385,-0.0275 c -0.1441,0.2664 -0.3624,0.4582 -0.4339,0.7786 -0.1758,0.0814 -0.4168,0.5552 -0.5355,0.7361 l -2.6163,4.1066 c -0.1933,0.2887 -0.3115,0.506 -0.5059,0.7952 -0.1975,0.2934 -0.3318,0.5666 -0.535,0.8206 -0.2089,0.3624 -0.4593,0.7034 -0.65,1.0565 l -0.9399,1.4914 h 8.5295 v -1.3012 l -6.0127,-0.0119 0.1576,-0.1783 c 0.1695,-0.3899 0.4981,-0.6719 0.5785,-1.0565 0.3105,-0.1757 3.6976,-5.7478 4.1926,-6.4585 z m -16.2642,-1.0269 -0.4339,-1.0264 H 290.65 l 0.4339,1.0264 c 0.1478,0.2467 0.2146,0.4365 0.3406,0.7293 0.0886,0.2064 0.2696,0.6397 0.3821,0.7926 0.1669,0.6314 2.8645,6.3632 3.2917,7.4694 0.2063,0.5355 -0.4863,1.0834 -0.5448,1.7573 -0.2074,0.2566 -0.3126,0.5967 -0.4536,0.9274 -0.155,0.3629 -0.3235,0.6521 -0.4137,1.0264 h 1.5178 c 0.1504,-0.2711 0.3022,-0.6459 0.4324,-0.9352 0.1498,-0.3322 0.2763,-0.6993 0.4349,-1.0186 l 3.9034,-8.9441 c 0.1244,-0.2572 0.2447,-0.5459 0.3597,-0.8087 0.1011,-0.2307 0.3095,-0.6402 0.3634,-0.8553 l 0.506,-1.1669 h -1.5904 c -0.099,0.4266 -0.3333,0.7086 -0.4334,1.1669 -0.2037,0.2104 -0.6749,1.4426 -0.7231,1.664 -0.141,0.1436 -0.5682,1.1969 -0.6402,1.3721 l -1.2193,2.8288 c -0.298,0.6962 -0.312,0.7081 -0.6702,1.3535 -0.0705,-0.3022 -1.3769,-3.1424 -1.5894,-3.6157 -0.2208,-0.4914 -0.7916,-1.8641 -1.0129,-2.2213 -0.0555,-0.2654 -0.2011,-0.4966 -0.3198,-0.7827 -0.0892,-0.2136 -0.2369,-0.565 -0.3308,-0.7392 z m -19.7342,8.7414 v -1.2472 c 0,-2.6406 -0.4153,-4.0999 0.9486,-5.837 0.5008,-0.6381 0.9263,-0.7262 1.2923,-1.0124 0.2919,-0.0845 0.4567,-0.2135 0.7843,-0.3079 0.7735,-0.2229 0.7429,0.007 0.7652,-0.3115 5e-4,-0.006 -0.1016,-0.9502 -0.1084,-0.9798 -0.0601,-0.269 0.0265,-0.2861 -0.7921,-0.0736 -0.593,0.154 -1.1103,0.379 -1.5867,0.6547 -0.3432,0.1986 -1.0311,0.6967 -1.2312,1.0181 -0.2348,0.1535 -0.6837,0.8523 -0.8439,1.1711 -0.2426,0.4826 -0.4318,0.9885 -0.5189,1.5774 -0.182,1.228 -0.0824,2.7536 -0.0824,4.1009 v 1.2472 c 0,1.4811 -0.1364,1.2986 0.649,1.296 0.8703,-0.003 0.7242,0.1959 0.7242,-1.296 z m 48.5759,-0.2913 c 0,1.9004 -0.3053,1.5925 1.3732,1.5832 v -1.5832 -1.9341 c 0,-1.8283 0.125,-3.6582 -0.6505,-4.7447 -0.1245,-0.4583 -0.8035,-1.312 -1.1566,-1.578 -0.6749,-0.9242 -2.7033,-1.6448 -3.9749,-1.6588 -1.2871,-0.0135 -3.37,0.7299 -4.0486,1.6588 -0.3374,0.254 -1.0367,1.1374 -1.1565,1.578 -0.3214,0.4505 -0.6329,1.5302 -0.6531,2.2601 -0.0234,0.8429 0.1031,2.0124 0.4364,2.4826 0.0441,0.4624 0.9212,1.7132 1.2286,1.9351 0.7123,1.0077 2.7542,1.7117 4.131,1.791 1.0295,0.0596 2.4763,-0.4795 3.3741,-1.0871 0.1991,-0.1347 0.6853,-0.5318 0.8077,-0.7019 l 0.2892,-0.297 z M 281.5421,192.08 c 0.3976,-0.0218 0.6309,-0.4069 2.0243,-0.4079 1.2544,-0.001 1.5287,0.368 2.0237,0.4136 0.1379,0.226 0.1789,0.1716 0.4199,0.3245 0.1654,0.1047 0.254,0.1773 0.4189,0.3038 0.3011,0.2317 0.4473,0.6112 0.679,0.7542 0.0965,0.4469 0.4583,0.8849 0.506,1.4577 h -8.0956 c 0.0446,-0.5355 0.508,-1.2607 0.7226,-1.6609 0.3012,-0.3519 0.5376,-0.6313 0.9248,-0.8828 z m 37.227,-0.3437 c 0.3821,0.3676 0.7636,0.1493 1.9517,1.578 0.3489,0.6231 0.7735,1.2425 0.7978,2.1876 0.0358,1.384 -0.1011,1.6313 -0.5085,2.5571 -0.14,0.211 -0.1985,0.3458 -0.3603,0.5547 -0.4536,0.5863 -0.6744,0.7771 -1.2892,1.1679 l -0.2198,0.1462 c -0.0109,0.008 -0.0321,0.0264 -0.0415,0.0327 -0.009,0.007 -0.028,0.0217 -0.0409,0.0336 -0.4728,0.0851 -1.0306,0.4153 -1.9522,0.4308 -0.9414,0.0161 -1.5842,-0.3473 -2.0238,-0.4328 -0.2504,-0.2328 -0.311,-0.2162 -0.5656,-0.38 -0.5722,-0.367 -1.0248,-0.9994 -1.3861,-1.5551 -0.4043,-0.9067 -0.5205,-1.1462 -0.5091,-2.4831 0.008,-0.9123 0.4661,-1.6661 0.7984,-2.2596 0.2669,-0.3209 0.4914,-0.6029 0.8465,-0.8667 0.437,-0.324 1.0067,-0.6164 1.1052,-0.7113 0.4007,-0.0114 0.7241,-0.2814 1.6619,-0.2825 1.0482,-0.001 1.2991,0.2701 1.7355,0.2825 z"
       style="fill:#ffffff;fill-rule:evenodd;stroke-width:1.008;stroke-dasharray:none"
       id="path2" />
    <path
       d="m 287.6833,130.4756 c 0.7501,-0.3691 -0.2529,-0.1011 -0.7184,-0.1696 0.3509,-0.3804 3.7199,-0.7723 4.4254,-0.8185 -0.4826,-0.0342 0.3623,-0.0741 0.2851,-0.0725 0.0192,-0.0612 -0.4624,-0.0389 -0.973,0.0196 -0.9808,0.0617 -2.9314,0.2587 -2.9309,0.2587 0.0197,0.0192 0.1016,0.1125 0.0912,0.1078 -0.085,0.001 -0.0472,-0.1384 -0.2887,-0.1052 -0.1659,0.0347 -0.3012,0.0793 -0.4604,0.1338 0.1234,-0.0348 -0.0357,0.0212 -0.015,0.0145 -1.5406,0.3654 -2.6836,0.6884 -4.1911,1.156 -0.0555,0.0337 -0.8854,0.5655 -0.8875,0.5598 0.005,0.015 -0.5785,0.2851 -0.5769,0.2846 0.01,-0.0207 0.03,-0.0627 0.03,-0.0622 -0.2545,0.1472 -0.7817,0.423 -0.7812,0.4225 0.0959,-0.0602 0.2877,-0.1789 0.2877,-0.1789 0.3204,-0.1638 0.1784,-0.0959 0.0451,-0.0295 0.1633,-0.0975 0.4956,-0.2841 0.4951,-0.2841 l 0.0549,-0.1005 c -0.4064,0.1809 -0.4235,0.1892 -0.4406,0.198 0.156,-0.0923 0.169,-0.1016 0.169,-0.1016 0.0969,-0.0555 0.2872,-0.155 0.3126,-0.168 -0.1452,0.0622 -0.3707,0.0918 -0.5837,0.1778 0.0119,-0.003 0.0358,-0.008 0.0358,-0.008 -0.2592,0.1597 -0.7999,0.4396 -0.7994,0.4396 -1.0502,0.7543 -1.0891,0.76 -0.9808,0.7268 6e-4,-5e-4 -0.014,0.0124 -0.0134,0.0119 0.3649,-0.2317 1.0979,-0.691 1.0979,-0.691 0.3032,-0.1586 -0.6164,0.4432 -0.508,0.3701 -0.2094,0.1348 -0.6205,0.4106 -0.6205,0.4106 -0.9694,0.6894 -0.8973,0.6412 -0.8896,0.6366 0.3686,-0.2058 1.1109,-0.5874 1.1462,-0.6055 -0.1711,0.1006 -1.9082,1.1679 -1.9118,1.1617 -0.1109,0.044 0.1498,-0.1431 0.1819,-0.169 -0.1778,0.1234 -0.5272,0.3748 -0.5272,0.3748 -0.129,0.1151 -0.3893,0.3286 -0.4136,0.3483 0.1228,-0.1171 0.2462,-0.2198 0.2701,-0.2395 -0.2105,0.1597 -0.6107,0.4764 -0.6408,0.4998 0.5604,-0.4894 1.7838,-1.3375 1.8315,-1.3706 -0.2774,0.1721 -0.8128,0.5277 -0.8351,0.5427 1.1948,-0.9481 0.9387,-0.7682 0.7231,-0.6267 l 0.1239,-0.098 c -0.2214,0.1493 -0.6506,0.4515 -0.6506,0.4515 0.6086,-0.6708 -0.6873,0.2955 -1.1228,0.6361 0.4691,-0.295 -0.3131,0.2602 -0.3447,0.2809 -0.1358,0.1187 -0.7843,0.7164 -0.8984,0.7035 l -1.0233,0.8071 c -0.4805,0.4308 -0.6946,0.6278 -1.1057,1.1088 l 0.3971,-0.2955 -0.3805,0.3738 c 0.003,0.005 -0.155,0.156 -0.155,0.1555 -0.1109,0.1125 -0.3348,0.3354 -0.3348,0.3354 -0.041,0.0498 -0.1245,0.1477 -0.1239,0.1477 -0.0757,0.0871 -0.1638,0.1924 -0.2566,0.3054 -0.3733,0.3592 -0.3121,0.2752 -0.1892,0.1192 -0.1836,0.2048 -0.534,0.6298 -0.534,0.6298 -0.1788,0.2167 -0.5381,0.6496 -0.5375,0.6496 -0.1981,0.2908 -0.5967,0.8703 -0.5967,0.8703 -1.2825,1.8766 -2.2638,3.5623 -3.186,5.6442 -0.5386,1.2617 -0.9382,2.4078 -1.2856,3.7365 -0.114,0.5836 -0.3789,1.7438 -0.3789,1.7433 -0.009,0.1171 -0.0285,0.3525 -0.0285,0.3525 0.0166,-0.0508 0.0508,-0.1519 0.0508,-0.1514 0.0135,-0.0689 0.0114,-0.0487 0.01,-0.0342 l 0.1219,-0.3323 c -0.009,0.0923 -0.0913,0.8678 -0.2193,0.8149 -0.0285,0.2571 -0.0752,0.7734 -0.0752,0.7729 -0.2218,0.325 -0.1586,2.3737 -0.0357,3.8863 0,0.002 0.002,0.0166 0.002,0.0166 0.294,2.524 0.464,4.5224 1.0632,7.079 0.0327,0.1016 0.352,1.1047 0.3525,1.1047 0.0726,0.1358 0.0571,0.0829 0.0405,0.0373 0.0736,-0.0627 -0.056,-0.4334 -0.182,-0.8107 l -0.07,-0.2074 c -0.2804,-1.0046 -0.0591,-0.2555 0.0249,-0.01 -0.1,-0.4946 -0.0363,-0.2146 0.0249,-0.007 0.1026,0.3468 0.3255,1.0347 0.3255,1.0347 0.1182,0.1949 0.3598,0.8051 0.3453,0.7724 0.0487,0.1374 0.1016,0.2722 0.1519,0.409 0.1,0.2659 0.3131,0.7936 0.3131,0.7936 -0.1685,-0.3317 -0.4686,-0.9999 -0.4837,-1.0336 l 0.1078,0.3167 c -0.004,0.055 -0.1793,-0.3924 -0.2068,-0.4619 -0.1488,-0.2234 -0.4328,-0.6738 -0.4432,-0.6915 l 0.0928,0.3458 c -0.085,-0.0798 -0.1825,-0.437 -0.2685,-0.6314 0.2312,0.7003 0.7744,2.0595 0.791,2.1026 -0.3883,-0.7906 -0.4867,-1.027 -0.7413,-1.8673 -0.006,0.002 -0.0414,-0.0953 -0.0409,-0.0948 0.0751,0.2695 0.2405,0.804 0.2405,0.8035 -0.0498,-0.1156 -0.1389,-0.3385 -0.154,-0.3753 0.0628,0.1798 0.1903,0.5256 0.1903,0.5256 0.3224,0.9357 0.1959,0.5759 0.0819,0.2063 0.0612,0.1607 0.5505,1.3509 0.5505,1.3509 0.027,-0.006 0.4406,0.9818 0.4406,0.9818 0.1861,0.3499 0.5563,1.0524 0.5563,1.0518 0.1399,0.282 -0.3748,-0.6132 -0.4101,-0.6692 -0.1695,-0.3271 -0.5246,-0.9445 -0.5246,-0.9445 -0.0135,-0.0306 -0.1674,-0.3753 -0.1674,-0.3753 -0.3033,-0.6547 -0.1524,-0.3027 -0.0192,0.008 0.001,0 0.0156,0.0373 0.0156,0.0373 0,0 -0.0197,-0.0357 -0.0197,-0.0357 0.004,-0.003 -0.0711,-0.1369 -0.0768,-0.1468 l 0.0648,0.1519 c 0.239,0.5868 0.1079,0.2872 -0.0181,0.008 -1.5702,-3.6292 -2.2316,-6.8074 -2.3758,-10.759 -0.015,-0.7226 -0.002,-1.4193 0.009,-2.1399 l 0.0311,-1.1352 c -0.0125,0.3545 -0.0736,1.0595 -0.0736,1.0595 0.014,-0.003 0.007,-0.016 0.0202,-0.0165 0,0 -0.0291,0.65 -0.0291,0.65 -0.007,0.1374 -0.0342,1.5821 -0.0342,1.5821 0.098,4.0569 0.7035,7.1086 2.2602,10.8399 2.9138,5.5705 1.5847,3.3575 -0.0104,0.005 -1.5365,-3.7235 -2.2052,-6.8302 -2.284,-10.8445 -0.005,-0.4873 0.003,-0.9709 0.0171,-1.4577 0.002,-0.1296 0.0109,-0.6495 0.0114,-0.6531 -0.0456,0.0181 -0.1218,0.0819 -0.1218,0.0819 -0.007,0.1239 -0.005,0.0912 -5e-4,0.0606 -0.0306,0.3644 -0.0104,-0.002 -0.007,-0.0612 -0.0208,0.0177 -0.0633,0.0508 -0.0633,0.0503 -0.001,0.0824 -0.0264,0.9139 -0.0264,0.9139 -0.0239,-0.007 -0.013,-0.5966 -0.013,-0.7153 -0.0523,0.3374 -0.0368,1.1233 -0.0363,1.1181 0.002,0.0487 0.004,0.1472 0.004,0.1472 -0.005,-0.0544 -0.01,-0.0554 -0.01,-0.0554 0,0 -0.003,-0.0374 -0.003,-0.0368 -0.003,0.0736 -0.007,0.2213 -0.007,0.2208 -0.003,-0.0182 -0.007,-0.0555 -0.007,-0.0555 -0.004,0.0389 -0.0347,0.4422 -0.0347,0.4422 0.009,0.003 -0.0197,0.5199 -0.0197,0.5194 0.0129,0.0581 0.0171,-0.1856 0.029,-0.3882 0,-0.0115 -0.005,-0.1312 -0.005,-0.1312 0.002,-0.013 0.004,-0.002 0.004,0 0,0 0.008,0.0575 0.008,0.057 5e-4,-0.005 0.004,-0.057 0.004,-0.057 0.014,-0.002 0.0384,-0.4515 0.041,-0.494 l 0.003,0.494 c 0.006,0.1519 0.015,0.0171 0.0166,0 0.007,-0.0555 0.014,-0.0632 0.0249,0 0,0 0.003,0.0202 0.003,0.0197 5e-4,-0.002 0.006,-0.0197 0.006,-0.0197 0.0171,-0.0586 0.0269,-0.0591 0.0342,0 0.0114,0.001 0.016,0.4614 0.0155,0.4614 l 0.0145,0.3224 c -0.014,-0.2296 -0.016,-0.2125 -0.016,-0.2125 0.003,0.1347 0.0109,0.4033 0.0109,0.4033 -0.0954,0.0347 -0.0239,1.326 -0.0171,1.4981 0.0295,0.1736 0.0907,0.5194 0.0907,0.5194 0.0295,0.1835 0.1239,0.7843 0.1244,0.7843 0.0601,0.3473 0.2006,1.0383 0.2006,1.0378 -0.3582,-1.397 -0.537,-2.7262 -0.6158,-4.1647 0.1539,3.8008 0.8848,6.7836 2.3659,10.3044 1.6297,3.5561 3.3819,6.0583 6.1573,8.8167 2.835,2.6572 5.3782,4.33 8.9587,5.8214 l 5.2449,1.5245 c 0.8616,0.2696 2.6189,0.6817 2.6189,0.6817 l 0.3888,0.0161 -0.2825,0.006 c 0.1368,0.028 0.4085,0.0793 0.4085,0.0793 0.17,-0.004 0.4981,0.0125 0.5386,0.015 l -0.1597,0.007 c -0.211,-0.0119 -0.1223,-0.006 -0.0363,10e-4 -0.0663,6e-4 -0.2001,0.003 -0.2001,0.003 0.2462,0.044 0.7377,0.1244 0.7377,0.1244 0.4815,-0.0104 1.4468,-0.0358 1.4463,-0.0358 0.009,-5e-4 0.1067,-0.004 0.1067,-0.004 0.004,-0.0234 1.027,-0.0555 1.027,-0.0555 -0.0851,0.009 -0.2551,0.0264 -0.2546,0.0264 l 0.027,-0.004 -0.5205,0.0498 c -0.0347,0.004 -0.2789,0.0186 -0.2789,0.0186 0,-0.001 -0.0337,0.002 -0.0337,0.002 0.003,0 0.0337,0 0.0337,0 -0.41,0.0295 -0.8159,0.0441 -1.227,0.0518 0.006,0.002 0.0187,0.004 0.0182,0.004 -3.6303,-0.1809 -6.3917,-0.7792 -9.7637,-2.1326 -3.6147,-1.5645 -6.1652,-3.2664 -9.0033,-5.9962 -0.7366,-0.7345 -1.397,-1.4602 -2.0554,-2.2632 0.6516,0.804 1.3183,1.5318 2.0497,2.2689 2.8107,2.7335 5.3958,4.4483 8.995,6.0247 3.3803,1.3374 6.3351,2.0481 9.9586,2.1689 0.3432,0.0124 0.6843,0.0233 1.0279,0.0264 0.002,-0.008 0.2805,0.002 0.2805,0.002 0.2649,-0.006 0.791,-0.0296 0.791,-0.0296 0.1934,-0.007 0.8471,-0.0586 0.8911,-0.0622 -0.3597,0.01 -0.7164,0.0166 -1.0761,0.0166 0.2389,-0.0114 2.3394,-0.1659 2.3358,-0.1954 1.2337,-0.1488 2.382,-0.3976 3.5851,-0.6967 1.2187,-0.3219 2.9538,-1.0166 4.074,-1.4795 -0.004,-0.0197 0.7242,-0.3245 0.7242,-0.3245 l 0.3862,-0.1959 -0.1747,0.0979 c 0.4043,-0.1887 1.1819,-0.62 1.1819,-0.62 0.1239,-0.057 0.3706,-0.1736 0.3701,-0.1736 0.353,-0.1929 1.0466,-0.6008 1.0466,-0.6008 0.9611,-0.2219 -2.5147,1.6116 -3.4337,2.0554 -3.7417,1.6572 -6.8971,2.3731 -10.982,2.5255 -1.3109,0.0202 -2.4146,-0.029 -3.7085,-0.1488 0.6947,0.0845 2.0912,0.1784 2.0912,0.1784 0.2291,0.0176 0.6863,0.0451 0.6858,0.0451 0.1871,-0.0239 0.5609,-0.0285 0.5609,-0.0285 -0.0503,0.004 -0.1498,0.0124 -0.1498,0.0124 -0.5246,-0.001 0.0907,0.005 -0.0187,0.004 -0.0964,0.008 -0.2809,0.0166 -0.3131,0.0182 l 0.8522,0.0342 c 0.004,-0.0166 0.6594,0.005 0.6589,0.005 0.2913,-0.0305 0.8724,-0.0959 0.8719,-0.0959 0.6288,-0.0673 1.8817,-0.2363 1.8817,-0.2363 l -0.2337,0.0456 0.0176,-0.002 c -0.1633,0.0316 -0.4832,0.0887 -0.5054,0.0928 l 0.0171,-0.002 -0.3261,0.0477 0.0342,-0.003 c -0.3603,0.0545 -1.0736,0.1374 -1.1202,0.1426 0.4147,-0.01 1.2389,-0.0555 1.2389,-0.0555 0.2566,-0.0441 0.7631,-0.141 0.7631,-0.141 0.2348,-0.0383 2.6349,-0.382 2.6214,-0.4365 1.3364,-0.325 2.6091,-0.707 3.891,-1.2083 0.1835,-0.0498 0.5469,-0.155 0.5469,-0.155 0.0928,-0.0379 0.7589,-0.3209 0.7589,-0.3209 -0.008,-0.0389 1.9388,-0.8678 1.9108,-0.9212 2.7292,-1.4504 4.8572,-3.1299 7.0448,-5.3191 2.0144,-2.1528 3.5136,-4.1709 4.8562,-6.7866 0.3929,-0.7558 0.7387,-1.5168 1.0642,-2.3042 -0.0166,-0.0109 0.325,-0.8398 0.3411,-0.8787 l -0.4303,0.8408 c -0.0139,-0.004 -0.2742,0.507 -0.2742,0.5065 -0.4385,0.8978 -0.4033,0.8128 -0.3945,0.7848 -0.2649,0.5308 -0.8356,1.55 -0.8714,1.6132 l 0.2255,-0.4344 c -0.058,0.1053 -0.1819,0.3199 -0.1819,0.3199 -0.0545,0.1119 -0.6755,1.3182 -0.7138,1.2928 -0.0109,-0.098 0.2275,-0.5256 0.3245,-0.7179 0.5432,-1.2146 0.0689,-0.2297 0.0129,-0.1162 -0.538,0.9228 -0.31,0.5552 -0.1057,0.2053 -0.4199,0.8258 -1.4199,2.3965 -1.4199,2.3965 -0.0876,0.0876 0.7123,-1.268 0.8196,-1.4577 0.2302,-0.381 0.5998,-1.0528 0.789,-1.3996 -0.2359,0.4256 -0.5708,0.9937 -0.5708,0.9937 -0.3939,0.606 -1.2513,1.7703 -1.2508,1.7703 -0.3893,0.5847 -1.2675,1.692 -1.2675,1.692 -0.1622,0.1804 -0.4059,0.3898 -0.608,0.6127 0.3888,-0.4624 0.3177,-0.3841 0.2892,-0.3546 l 2.9351,-4.343 c 0.1529,-0.2198 0.2063,-0.0145 0.6195,-0.7381 0.4515,-0.9171 0.9315,-1.8159 1.3467,-2.7511 -0.0129,-0.009 0.2551,-0.6221 0.2551,-0.6215 -0.112,0.2125 -0.2742,0.3981 -0.3494,0.58 l -5e-4,0.001 c -0.4863,1.143 -1.0451,2.1678 -1.6692,3.2419 0.4323,-1.1383 -0.0902,-0.1716 -0.3624,0.2722 0.3188,-0.5485 0.901,-1.6754 0.901,-1.6749 -0.0508,0.0783 -0.1529,0.2353 -0.1529,0.2348 -0.0856,0.154 -0.1156,0.2291 -0.2338,0.3691 -0.3131,0.537 -0.1784,0.3188 -0.0493,0.112 -0.1633,0.3468 -0.536,1.0176 -0.536,1.0176 -0.0612,0.1886 -0.4458,0.8019 -0.4137,0.748 -0.0451,-0.002 -0.1347,-0.006 -0.1347,-0.006 -0.8657,1.2514 -0.4785,0.6417 -0.45,0.5946 0.1389,-0.2001 0.4064,-0.6024 0.4064,-0.6024 -0.0285,0.0104 0.337,-0.5287 0.3261,-0.5111 -0.0379,0.0715 -0.1151,0.2146 -0.1146,0.2146 0.084,-0.1125 0.2571,-0.3302 0.2571,-0.3302 0.1929,-0.3914 0.6169,-1.1493 0.6169,-1.1488 0.5085,-1.1134 0.5635,-1.0979 0.4344,-1.1057 0.5324,-0.7843 0.494,-0.7065 0.4764,-0.6593 -0.0622,0.1518 -0.1908,0.451 -0.1908,0.451 0.5138,-0.9611 0.1747,-0.2442 0.0534,0.0259 0.0752,-0.154 0.3256,-0.6185 0.3567,-0.7232 0.0218,-0.0539 0.2436,-0.62 0.2436,-0.62 -0.014,-0.009 0.2385,-0.6552 0.2385,-0.6552 0.1223,-0.311 0.3494,-0.9294 0.3639,-0.9688 -0.1255,0.4738 0.014,0.0601 -0.004,0.3405 -0.0581,0.1063 -0.1768,0.3168 -0.1768,0.3168 -0.0316,0.0948 -0.3795,0.9849 -0.3795,0.9849 -0.2897,0.6822 -0.1332,0.3333 0.0171,0.007 -0.009,-0.006 0.169,-0.383 0.1861,-0.4183 l -0.1451,0.4355 c -0.004,-6e-4 -0.0467,0.1321 -0.0467,0.1321 0.006,-0.01 0.0685,-0.1228 0.0685,-0.1228 0.226,-0.408 0.2581,-0.593 0.4256,-1.0259 0.008,0.0804 -0.2079,0.6838 -0.2608,0.8341 0.1384,-0.3007 0.1146,-0.2338 0.098,-0.1815 0.1788,-0.3722 0.4888,-1.0834 0.5619,-1.2518 -0.1026,0.2172 0.1985,-0.9549 0.1674,-0.8046 0.3328,-0.8154 0.1353,-0.0767 0.0664,0.1846 0.2068,0.0803 0.7672,-1.5925 0.9958,-2.2711 0.4277,-2.1061 0.4831,-4.0724 0.3551,-6.2138 -0.2519,-3.0346 -0.7397,-4.2315 -1.3426,-6.9536 -0.006,-0.0103 -0.009,-0.0207 -0.0125,-0.0321 -0.004,0.001 10e-4,0.0181 10e-4,0.0176 l -0.1244,-0.3743 0.0409,0.3785 c -0.0456,-0.2115 -0.1156,-0.6211 -0.1301,-0.7092 0.0306,0.2084 0.0959,0.5951 0.0959,0.5946 -0.1016,-0.3613 -0.3105,-1.0813 -0.3105,-1.0813 -0.0218,-6e-4 -0.3541,-0.7942 -0.3473,-0.7781 -0.14,-0.395 -0.4432,-1.1628 -0.4619,-1.2105 0.0798,0.1566 0.2312,0.4681 0.2312,0.4676 0.1918,0.5583 0.1166,0.3251 0.0425,0.0923 0.1669,0.3691 0.452,1.1213 0.4619,1.1482 l -0.0233,-0.1171 c 0.0191,0.003 0.2763,0.6713 0.2675,0.6479 -0.1478,-0.5764 0.1612,0.379 0.186,0.4764 l 0.005,0.0208 c 0.0104,0.0248 0.2727,0.6936 0.2763,0.6925 0.0845,0.2385 0.1814,0.5215 0.2773,0.8071 -0.17,-0.7298 -0.6065,-2.1429 -0.622,-2.1932 l 0.0181,0.0466 c -0.085,-0.2643 0.0374,0.0602 0.0342,0.0612 0.2354,0.5951 -0.1435,-0.551 -0.2151,-0.761 -0.0995,-0.3266 -0.1545,-0.5764 -0.2789,-0.9201 -0.0207,-0.0477 -0.4577,-1.0601 -0.4541,-1.0611 -0.1913,-0.4469 -0.453,-0.8787 -0.7065,-1.2919 0.0456,0.082 0.1353,0.2463 0.1348,0.2463 -0.005,0.009 -0.0161,0.0269 -0.0156,0.0269 0.0321,0.0628 0.5039,1.0539 0.5039,1.0539 -0.0114,0.008 0.2545,0.6407 0.2545,0.6407 0.1296,0.3401 0.3691,1.0275 0.3691,1.0275 l -0.0726,-0.1872 c 0.0684,0.1794 0.17,0.4609 0.17,0.4609 0.1892,0.5826 0.5086,1.7651 0.5086,1.7651 -0.0835,-0.2924 -0.2644,-0.8725 -0.2644,-0.8725 l -0.0736,-0.2395 0.0788,0.2706 c -0.1203,-0.3696 -0.3826,-1.0953 -0.3821,-1.0948 -0.008,-0.1949 -0.5614,-1.4178 -0.6008,-1.5106 l -0.1145,-0.2063 c -0.0177,0.006 -0.3453,-0.6241 -0.3442,-0.622 -0.0296,-0.0503 -0.0897,-0.1509 -0.0892,-0.1504 0.0746,0.1825 0.2156,0.5412 0.225,0.5656 l -0.111,-0.2338 c -0.6692,-1.5831 -0.6593,-1.5816 -0.524,-1.353 -0.2079,-0.4069 0.1363,0.1752 0.0964,0.1073 -0.5697,-1.227 -2.0253,-2.9501 -2.9475,-3.9863 -0.8004,-0.9295 -1.7102,-1.7589 -2.6542,-2.5401 -0.0114,0.01 -1.1124,-0.9103 -1.1404,-0.9155 -0.2058,-0.2892 -0.1835,-0.2716 -0.1586,-0.2545 -0.5583,-0.4779 -1.7283,-1.3618 -1.7283,-1.3618 l -1.0668,-0.5013 c 1.3073,0.6993 2.8645,1.7776 3.5239,3.0927 0.0223,0.0207 0.2587,0.2519 0.2587,0.2519 -0.005,0.008 0.3867,0.436 0.3867,0.436 0.5168,0.5531 1.4603,1.7039 1.522,1.7791 -0.2426,-0.2877 -0.7392,-0.8393 -0.7392,-0.8393 -0.1053,-0.1311 -1.2016,-1.3436 -1.2016,-1.3436 -1.5194,-1.4976 -2.9709,-2.6267 -4.8111,-3.6904 -0.5563,-0.3286 -1.6962,-0.9382 -1.6957,-0.9382 0.0695,0.1389 -2.0165,-0.5195 -2.0113,-0.5288 l -1.3353,-0.1882 c 0.4245,0.0825 0.8532,0.1752 1.2928,0.2877 1.2908,0.3619 2.2928,0.7569 3.4234,1.4904 1.7837,1.2156 3.2497,2.4048 4.7893,3.9153 2.5531,2.5945 4.0486,4.8023 5.5068,8.1697 0.2229,0.5448 0.4225,1.0917 0.6055,1.6511 0.1632,0.608 0.0668,0.2913 -0.0405,-0.003 -0.009,0.0291 -0.0995,-0.1669 -0.0928,-0.1529 0.9881,2.9569 1.3976,5.4047 1.3722,8.5077 -5e-4,0.7091 5e-4,0.2825 0.009,0 0.0477,-2.3198 -0.1597,-4.2222 -0.6516,-6.5046 0.5236,2.2829 0.7459,4.1755 0.7351,6.5046 0.0928,2.326 0.0404,2.8775 0.0373,2.9382 0.007,0.8626 0.0389,0.6329 0.0606,0.508 0.0565,-0.3354 -0.0233,0.4116 -0.0145,0.3494 0.004,-0.005 0.0135,-0.015 0.013,-0.0145 0.0254,-0.2328 0.0658,-0.6952 0.0658,-0.6952 0,-0.0109 0,-0.0337 0,-0.0331 -5e-4,0.005 -0.002,0.0165 -0.002,0.0165 0.0239,-0.3011 0.054,-0.8916 0.0571,-0.946 l -0.001,0.2307 0.003,-0.0296 c -0.001,0.1633 -0.01,0.4821 -0.01,0.4821 -0.002,0.0949 -0.01,0.2841 -0.01,0.2841 0.002,-0.0114 0.004,-0.0332 0.004,-0.0332 -0.005,0.0944 -0.0161,0.2836 -0.0161,0.2831 0.1006,-0.1711 0.1203,-0.4381 0.1426,-0.6895 5e-4,-0.0622 0.003,-0.1851 0.003,-0.1851 0.0103,-0.1456 0.1042,-2.4659 0.1042,-2.4659 0.0181,-0.0798 0.0207,-0.0119 0.0217,0 0.0337,0.55 0.006,1.1648 -0.0254,1.7133 0.0125,-0.1307 0.0311,-0.3759 0.0353,-0.4287 l -5e-4,0.0108 -6e-4,0.013 6e-4,-0.013 0.001,-0.0176 v -0.003 c 0.008,-0.1768 0.0114,-0.4764 0.0114,-0.4764 -10e-4,-0.0824 -0.0114,-0.7983 -0.0114,-0.7983 -0.0534,-1.7091 -0.0192,-0.8704 0.0166,0 -0.0187,0.005 0.003,0.7418 0.005,0.8108 l 0.0103,-0.8108 c -0.0466,-3.3301 0.0876,-0.3618 0.0996,0 -0.0228,0.005 -0.01,1.0414 -0.01,1.0414 0,0.3515 -0.0212,1.0555 -0.0212,1.0555 0.028,0.3732 -0.0503,1.1611 -0.125,1.7179 0.0431,-0.4707 0.0768,-1.4162 0.0768,-1.4162 -0.002,-0.1022 -0.004,-0.3059 -0.004,-0.3059 -0.0212,0.2364 -0.0725,0.705 -0.0725,0.705 -0.0166,0.2856 -0.0711,0.8543 -0.0711,0.8543 0.027,1.3281 -0.0912,1.5287 -0.242,2.7765 0.2825,-1.1509 0.3395,-1.422 0.4364,-2.664 -0.0259,0.1317 -0.003,-0.0109 0.001,-0.0342 v -0.002 l 0.0347,-0.5215 c 0.043,-0.3359 0.0695,-0.4883 0.0824,-0.8615 0.0187,-0.381 0.0316,-1.1446 0.0316,-1.1446 0.0617,2.0471 -5e-4,3.0019 -0.4841,5.0122 -0.1384,0.8512 -0.5578,2.5458 -0.5578,2.5458 0,-0.3256 0.2281,-1.2172 0.3064,-1.7153 l -0.1032,0.1607 c 0.2773,-1.2758 -0.2286,0.4468 -0.2981,0.6526 -0.128,0.4759 -0.4401,1.4115 -0.4401,1.411 -0.0342,0.0923 -0.4193,1.0135 -0.4193,1.0135 -0.003,-6e-4 -0.2572,0.5868 -0.2572,0.5868 -0.004,0.008 -0.0461,0.1047 -0.0523,0.1062 -0.005,0.0104 -0.0145,0.0306 -0.014,0.0306 -0.4785,1.2804 -2.0564,3.793 -2.0564,3.7925 -0.803,1.0928 -2.8812,2.905 -2.9481,2.9631 2.1295,-2.0772 3.7759,-4.3959 4.99,-7.1127 -0.2691,-0.3707 -0.9373,0.6459 -0.986,1.0015 0,0 -0.0472,0.0679 -0.0472,0.0679 -0.3322,0.6391 -0.1539,0.2281 -0.1311,0.1726 -0.2623,0.2592 -0.2623,0.268 -0.2592,0.2509 -0.0954,0.1928 -0.0581,0.1275 -0.0213,0.0627 -0.1959,0.3696 -0.1249,0.2193 -0.1083,0.182 l 0.17,-0.351 -0.0202,0.0612 c 0.1011,-0.2369 0.3743,-0.7345 0.3707,-0.7263 0.005,0.0208 0.0145,0.0623 0.0145,0.0623 0.0357,-0.0861 0.1062,-0.2582 0.1062,-0.2577 -0.0388,0.0477 -0.1192,0.1415 -0.1192,0.1415 -0.0373,0.0612 -0.0332,0.0441 -0.0316,0.0389 -0.1446,-0.1083 0.2877,-1.2436 0.3768,-1.5059 0,0 0.0576,-0.197 0.0576,-0.197 -0.007,0.0228 -0.0695,0.1918 -0.0695,0.1918 -0.6511,1.6822 -1.4043,3.0958 -2.3519,4.624 -0.2576,0.4214 -0.8828,1.1881 -0.8828,1.1876 -0.1182,0.1799 -0.368,0.5303 -0.368,0.5303 -0.2074,0.281 -0.6392,0.831 -0.6392,0.831 l -0.0254,0.029 -0.2343,0.2359 c 0.1389,-0.1711 0.4183,-0.5117 0.4183,-0.5117 l 0.4256,-0.6054 c -0.1949,0.2436 -0.5951,0.7133 -0.5951,0.7133 -0.0425,0.057 -0.1052,0.1332 -0.1664,0.2052 -0.0487,0.0503 -0.1228,0.127 -0.0855,0.0866 0.1654,-0.2125 -0.2737,0.2944 -0.2297,0.2473 0.1312,-0.1348 -0.087,0.1202 -0.1384,0.1819 l -0.1529,0.1395 0.1799,-0.2032 -0.4541,0.4681 c -2.5463,2.4846 -4.8292,4.0366 -8.0852,5.4751 -0.004,-0.006 -0.2556,0.1073 -0.2556,0.1073 -3.3451,1.3219 -6.0588,1.8781 -9.6616,1.9548 -2.4161,-0.0119 -4.3891,-0.2519 -6.7146,-0.9035 -0.2223,-0.0633 -0.6573,-0.196 -0.6863,-0.2048 l 0.4691,0.2105 c 0.1348,0.0425 0.0441,0.0135 0.0317,0.009 0.2369,0.0695 0.1394,0.0441 0.1052,0.0363 -0.0311,-0.008 -0.0928,-0.0254 -0.0928,-0.0254 0.4619,0.2048 1.4484,0.4531 1.4478,0.4531 1.8937,0.4074 3.5027,0.5873 5.4399,0.6179 3.7428,-0.0285 6.5685,-0.5682 10.0463,-1.9502 0.9263,-0.3877 1.7785,-0.7988 2.6577,-1.284 -0.0295,0.005 -0.0264,0.005 -0.0342,0.007 0.1861,-0.0886 -0.0741,0.0674 -0.1026,0.083 0.3084,-0.1167 0.8626,-0.4552 0.8973,-0.4759 l -0.0928,0.0648 c 0.3732,-0.1866 0.3706,-0.2234 0.6988,-0.4598 0.6578,-0.4479 1.9092,-1.4323 1.9087,-1.4323 -0.2473,0.2317 -0.7558,0.6801 -0.7558,0.6801 -0.8709,0.6081 -0.4982,0.3634 -0.1509,0.127 -0.1032,0.0887 -0.3084,0.2509 -0.3297,0.268 l 0.76,-0.5406 c -0.0633,0.115 -0.8372,0.6666 -1.0664,0.8257 -0.2192,0.1467 -0.6542,0.4319 -0.6733,0.4443 0.1731,-0.0767 0.5142,-0.2364 0.5142,-0.2364 0.2172,-0.1239 0.1794,-0.0959 0.1503,-0.0726 0.0866,-0.0373 0.2566,-0.1228 0.2561,-0.1228 -0.0487,-0.0223 -0.1457,-0.0674 -0.1457,-0.0674 0.2509,-0.141 0.7698,-0.4251 0.7698,-0.4251 0.1359,-0.0948 0.0379,-0.0321 -0.006,-0.004 0.3391,-0.2312 0.2136,-0.1363 0.1592,-0.0944 -0.0358,0.026 -0.1068,0.0783 -0.1068,0.0783 0.0949,-0.016 -0.5536,0.4645 -0.5054,0.4308 0.0938,-0.0487 0.2835,-0.1436 0.2835,-0.1436 0.0462,-0.0358 0.4863,-0.3753 0.4904,-0.3691 0.0259,-0.009 -0.003,0.0151 -0.007,0.0187 -0.0892,0.0751 -0.268,0.2239 -0.268,0.2239 -0.0223,0.0161 -0.0674,0.0482 -0.0674,0.0482 0.1597,-0.0829 0.4728,-0.254 0.4728,-0.254 0.0445,-0.0368 0.4919,-0.3732 0.5163,-0.3914 -0.0571,0.0353 -0.1975,0.1421 -0.337,0.2421 0.0923,-0.0777 0.9264,-0.7827 0.9264,-0.7827 0.0357,0.008 -0.4474,0.4354 -0.5293,0.5075 -0.1467,0.1176 -0.4386,0.3437 -0.4577,0.3587 l 0.3659,-0.2063 c 0.3919,-0.3188 1.1488,-0.9896 1.1488,-0.9896 -0.2691,0.2804 -0.8419,0.8133 -0.8419,0.8128 0.2188,-0.1306 0.6496,-0.396 0.6496,-0.396 0.355,-0.3152 1.0403,-0.973 1.0403,-0.973 -0.2322,0.255 -0.7117,0.763 -0.7117,0.763 0.0938,-0.0632 0.2841,-0.1871 0.2836,-0.1871 0.0705,-0.0762 1.0077,-1.0492 1.0196,-1.0321 -5e-4,-5e-4 0.0208,-0.0208 0.0208,-0.0208 -0.003,0.002 -0.0249,0.0166 -0.0249,0.0166 -0.004,-0.004 -0.1768,0.1187 -0.1877,0.126 l 0.1623,-0.1514 c -0.002,-0.003 0.1068,-0.1005 0.1062,-0.1005 0.0674,-0.0519 0.2007,-0.1566 0.2001,-0.1566 -0.003,0.005 -0.009,0.0151 -0.009,0.0151 2.0264,-1.5956 -0.0871,0.4551 -0.0783,0.4613 -0.4712,0.4085 -0.4722,0.4111 -0.466,0.4028 -0.084,0.0674 -0.2571,0.1965 -0.2566,0.1965 -0.0793,0.0699 -0.0586,0.0451 -0.0549,0.0404 -0.3323,0.2374 -1.0119,0.6894 -1.0119,0.6894 -0.6018,0.5801 -1.9237,1.6221 -1.9237,1.6221 -0.1405,0.0508 0.9849,-0.9274 1.1264,-1.0575 0.1078,-0.0897 0.3209,-0.2706 0.3209,-0.2706 -0.1643,0.099 -0.4951,0.2934 -0.4951,0.2934 l -1.8972,1.4753 c -0.4619,0.2898 0.2954,-0.3022 0.368,-0.3572 -0.0342,0.009 -0.1187,0.0342 -0.1005,-0.0311 0.5951,-0.3307 0.6034,-0.3945 1.1435,-0.8149 -0.2934,0.1628 -0.8761,0.4951 -0.8761,0.4946 0.3971,-0.309 -0.8211,0.4235 -0.692,0.341 0.0492,-0.0362 0.1472,-0.1093 0.1467,-0.1093 0.005,-0.003 0.014,-0.009 0.014,-0.009 -0.1073,0.0482 -0.3204,0.1456 -0.3204,0.1456 -0.1964,0.1369 -0.5909,0.4002 -0.5909,0.4002 -2.4468,1.3126 -3.5665,1.876 -4.1217,2.1347 2.3597,-0.9974 2.3369,-0.9777 2.1041,-0.8434 1.1705,-0.5666 3.327,-1.96 3.327,-1.96 -0.819,0.7294 -3.1289,1.9636 -4.1647,2.439 -0.0233,0.01 -0.3011,0.1311 -0.2996,0.1327 -0.008,-0.0109 -0.5894,0.2732 -0.5889,0.2732 -0.1135,0.0632 -0.3437,0.1783 -0.3654,0.1887 0.3271,-0.1276 0.9725,-0.3924 0.9725,-0.3924 5e-4,-6e-4 0.008,-0.006 0.009,-0.006 l 0.1005,-0.0591 c 0.2784,-0.1141 0.2364,-0.0887 0.1727,-0.0524 0.1871,-0.0446 -0.1737,0.1197 -0.254,0.1571 -0.4194,0.1923 -0.8253,0.3602 -1.2535,0.5292 -0.3364,0.1182 -1.0103,0.3323 -1.0362,0.3411 0.1741,-0.0238 -1.0166,0.3764 -0.8751,0.3266 -0.4499,0.1332 0.0788,-0.0192 -0.0155,0.008 l -0.1866,0.0705 c 0.2493,-0.0788 0.7428,-0.2473 0.7428,-0.2473 -0.3167,0.1255 -0.958,0.3582 -0.9574,0.3582 -1.3126,0.3722 1.0326,-0.2758 1.1088,-0.2892 l 0.2358,-0.099 c -1.4317,0.5121 0.7978,-0.3842 0.6195,-0.308 0.3007,-0.1016 0.4572,-0.1513 0.7739,-0.2897 0.0752,-0.0322 0.8507,-0.3831 0.8507,-0.3831 -0.002,-0.004 0.14,-0.0669 0.1581,-0.0747 l -0.155,0.0819 c -0.5489,0.2883 -1.0834,0.5464 -1.6578,0.7818 0.197,-0.069 0.5785,-0.2105 0.6071,-0.2209 -0.1654,0.0752 -1.86,0.816 -1.8818,0.732 -0.1031,0.0114 -0.0907,0.005 -0.0865,0.002 -0.281,0.0773 -0.8471,0.2178 -0.8471,0.2178 -0.5095,0.1482 -0.523,0.1544 -0.4872,0.1389 l 0.1741,-0.0674 -0.3286,0.072 c -0.5065,0.1493 -1.5355,0.3883 -1.5355,0.3883 -1.0393,0.1592 -0.3608,0.0379 0.1084,-0.0777 -0.2971,0.0565 -0.8937,0.155 -0.8937,0.155 -1.5552,0.0139 -2.7894,0.0207 -3.7795,0.0191 -0.4054,0.0109 -0.8082,0.008 -1.2084,-0.007 -2.0025,-0.0223 -2.6251,-0.097 -3.1331,-0.224 l 0.633,-0.009 c -0.6283,-0.0902 -1.2566,-0.2016 -1.8895,-0.3271 -1.5728,-0.3603 -3.0264,-0.918 -4.5229,-1.5137 -2.1052,-0.8563 -3.8039,-1.7199 -5.7344,-2.947 1.8709,1.3224 3.5349,2.2778 5.6245,3.2057 0.5583,0.2908 0.2047,0.1374 -0.0197,0.0477 -2.128,-0.8823 -3.808,-1.877 -5.6794,-3.2394 -0.008,-0.0222 0.1239,0.0571 0.1591,0.0721 -0.0813,-0.0617 -0.2436,-0.1871 -0.2436,-0.1871 -0.4277,-0.2826 -1.2529,-0.8917 -1.2529,-0.8911 0.0451,0.0824 -0.0456,0.0534 -0.0456,0.0534 0.171,0.1244 0.5085,0.3794 0.5085,0.3789 0.1923,0.1244 0.5562,0.3898 0.5868,0.4116 l -0.1306,-0.0778 c 0.2047,0.1467 0.6127,0.4267 0.6314,0.4391 -0.2292,-0.1415 -0.6791,-0.4339 -0.6791,-0.4339 -0.1156,-0.0834 -0.3308,-0.2452 -0.3764,-0.2794 0.0866,0.07 0.2483,0.1934 0.2483,0.1934 -0.0446,-0.028 -0.128,-0.0871 -0.128,-0.0871 0.1073,0.0855 0.3235,0.254 0.3235,0.254 -0.0985,-0.004 -0.295,-0.0135 -0.295,-0.0135 -0.0814,-0.0829 -0.2369,-0.2556 -0.2369,-0.2556 -0.0995,-0.0673 -0.2913,-0.2146 -0.2913,-0.2146 0.0388,0.0151 0.211,0.1364 0.2581,0.1737 -0.0503,-0.0581 -0.1446,-0.1763 -0.1446,-0.1757 -0.0892,-0.0628 -0.267,-0.1892 -0.267,-0.1892 -0.0803,-0.0566 -0.2364,-0.1732 -0.2364,-0.1732 -0.3317,-0.1866 -1.2363,-0.9844 -1.5494,-1.2825 0,-5e-4 -0.005,-0.005 -0.005,-0.005 -0.058,-0.0726 0.003,-0.0223 0.0187,-0.009 0.0223,-0.0186 0.8963,0.7221 0.8963,0.7221 0.1182,0.04 0.5562,0.3951 0.7433,0.5324 l -0.0642,-0.0586 c -0.141,-0.1114 -0.0685,-0.0622 -0.1001,-0.1435 -0.551,-0.4666 -0.2027,-0.2131 -0.1446,-0.1721 -0.029,-0.0358 -0.0866,-0.1079 -0.0866,-0.1079 0.4116,0.2955 0.6936,0.5459 1.1446,0.8362 0.2758,0.1996 0.8387,0.5826 0.8387,0.5826 -0.0197,-0.0207 -0.0591,-0.0627 -0.0591,-0.0627 -0.0207,-0.0119 -0.0565,-0.0383 -0.0559,-0.0378 -0.0514,-0.0311 -0.0539,-0.041 -0.0545,-0.0415 l 0.0985,0.0658 -0.143,-0.1467 c -0.4194,-0.3437 -1.2255,-1.0678 -1.2255,-1.0673 -0.3955,-0.3178 -1.1482,-0.9995 -1.1482,-0.9995 -0.0244,-0.0233 -0.2716,-0.2695 -0.2716,-0.2695 0.0238,-0.0342 -0.9762,-0.9948 -0.9492,-1.0197 -0.0337,-0.0363 -0.0664,-0.0777 -0.099,-0.1156 -0.2208,-0.183 -1.1197,-1.1394 -1.1996,-1.3586 0.0721,0.0725 0.2178,0.2166 0.2178,0.2166 -0.1141,-0.2182 -0.4686,-0.6567 -0.7133,-0.9704 l 0.2441,0.3266 c -0.0803,-0.085 -0.7179,-0.8418 -0.7179,-0.8418 -0.1872,-0.2572 -0.3577,-0.5454 -0.5189,-0.8196 -0.2224,-0.3727 0.5992,0.7133 0.4997,0.5863 0.1052,0.1539 0.3209,0.4577 0.3204,0.4577 0.1342,0.1571 -0.0317,-0.0866 -0.0897,-0.169 0.2498,0.3354 0.7267,0.9601 0.7267,0.9601 0.0291,0.0342 0.0882,0.1026 0.0882,0.1026 -0.0363,-0.0363 -0.0368,-0.0358 -0.0368,-0.0358 0,0 -0.0342,-0.0378 -0.0337,-0.0378 0.0435,0.0586 0.1311,0.1757 0.1311,0.1757 -0.0124,-0.0119 -0.0373,-0.0352 -0.0368,-0.0352 0.3935,0.5583 0.1872,0.2628 -0.0109,-0.056 0.3422,0.3385 0.0954,-0.003 0.0441,-0.0767 0.1939,0.2395 0.5873,0.6998 0.6148,0.7319 -0.1249,-0.1602 -0.3649,-0.479 -0.3649,-0.479 0.2726,0.3334 0.8413,0.9808 0.8413,0.9808 0.1358,0.1887 0.4795,0.5915 0.4966,0.6117 -0.1389,-0.1757 -0.3981,-0.5241 -0.4152,-0.5474 0.3872,0.4282 0.7418,0.8154 1.1736,1.2001 0.008,-0.006 0.3934,0.3302 0.3934,0.3296 -0.0876,-0.0933 -0.2566,-0.2866 -0.2566,-0.2866 -0.008,-0.008 -0.0922,-0.0881 -0.0922,-0.0876 -2.6453,-2.6168 -4.3078,-4.9547 -5.8552,-8.3315 -1.5121,-3.5809 -2.1637,-6.5041 -2.2388,-10.3764 0.0373,-2.3291 0.2908,-5.4435 1.1186,-7.6783 0.0301,-0.0964 0.465,-1.4815 0.4697,-1.4799 0.0311,-0.0648 0.03,-0.0612 0.0295,-0.0597 0.005,-0.0217 0.0161,-0.0653 0.0161,-0.0653 0.1032,-0.31 0.0581,-0.1861 0.0161,-0.0648 0.0653,-0.2695 0.2364,-0.8009 0.2364,-0.8009 0.0839,-0.2239 -0.125,0.5366 -0.1006,0.4432 -0.0627,0.1965 -0.1809,0.5894 -0.1809,0.5889 -0.083,0.3069 -0.2048,0.9321 -0.2048,0.9321 0.0975,-0.2603 0.267,-0.7864 0.267,-0.7859 -0.003,-10e-4 -0.007,-0.003 -0.007,-0.003 -0.1555,0.3105 -0.0518,0.0197 -0.0197,-0.0777 -0.007,-0.0203 -0.0212,-0.0607 -0.0212,-0.0607 0.1166,-0.2141 0.2763,-0.6464 0.2851,-0.6708 l -0.1364,0.4059 c 0.0301,-0.0788 0.3893,-1.0419 0.3676,-1.044 -0.0166,-0.4816 -0.1545,-0.1415 -0.1841,-0.0778 -0.1389,0.3173 -0.2441,0.6434 -0.339,0.9762 -0.0435,0.1555 -0.1462,0.4618 -0.1462,0.4618 -0.0445,0.1405 -0.2058,0.7035 -0.2265,0.7792 l 0.0166,-0.0737 c -0.0731,0.2484 -0.2079,0.7429 -0.2079,0.7429 -10e-4,0.005 -0.005,0.0161 -0.005,0.0161 -0.1675,0.268 0.1073,-0.5537 0.1617,-0.7227 0.0638,-0.2649 0.7268,-2.1875 0.7268,-2.1875 0.4131,-1.0441 1.0165,-2.4375 1.6158,-3.3903 0.3151,-0.4774 0.297,-0.4406 0.2913,-0.4261 5.8546,-6.1511 4.7147,-4.8137 5.9707,-6.1843 0.5811,-0.4566 1.0694,-0.8252 1.0694,-0.8252 0.5785,-0.4645 1.8403,-1.2462 1.8403,-1.2462 l -0.1975,0.1291 0.009,-0.006 z m -6.1086,1.1363 0.01,-0.0177 0.0819,-0.0228 z m 0.0918,-0.0405 0.2146,-0.057 c 0.009,-0.005 0.0975,-0.0524 0.0975,-0.0524 0.008,0.0104 0.1166,-0.0705 0.1166,-0.0705 l 0.1016,-0.0554 z m 0.5303,-0.2353 0.1213,-0.0638 0.0638,-0.0187 z m 0.1213,-0.0638 c 0.1825,-0.0949 0.3774,-0.1913 0.4064,-0.2058 -0.0845,0.0316 -0.777,0.3219 -0.777,0.3219 5e-4,0.002 -0.0674,0.0332 -0.0674,0.0332 0.169,-0.0767 0.3141,-0.1135 0.438,-0.1493 z m 0.4064,-0.2058 0.002,-0.001 h 5e-4 l 0.001,-5e-4 m -1.1124,0.4753 0.002,-0.001 0.001,-5e-4 m -4.5192,2.9464 10e-4,-0.001 0.001,-5e-4 0.002,-0.001 5e-4,-5e-4 z m 1.1907,-0.8708 0.002,-10e-4 z m 0.0119,-0.182 0.002,-0.001 z m -2.1181,1.3685 0.003,-0.002 z m -4.668,4.6219 -0.0856,0.1094 -0.015,0.0192 -0.003,0.003 m 0.1032,-0.1317 c 0.2586,-0.325 0.6428,-0.7796 0.7407,-0.8957 l 0.2779,-0.2919 0.4997,-0.5101 -0.2022,0.1991 c 1.2934,-1.3499 1.5464,-1.5697 1.7952,-1.7853 l -1.2369,1.2322 0.5459,-0.5314 c 0.4401,-0.4593 1.3939,-1.3089 1.3934,-1.3089 0.4292,-0.3406 -0.1928,0.2691 -0.2737,0.3463 0.2079,-0.1659 0.6174,-0.4785 0.6174,-0.4785 0.0834,-0.0725 0.9797,-0.8278 0.9994,-0.7988 -0.0135,0.0757 -0.4453,0.4349 -0.5857,0.5624 -0.3489,0.3987 -1.2239,1.169 -2.0067,1.8833 0.0549,-0.0596 0.1659,-0.1788 0.1659,-0.1783 -0.004,0.004 -0.013,0.0119 -0.013,0.0114 0.1115,-0.1187 0.3364,-0.353 0.3364,-0.353 -0.9709,0.7926 -0.4214,0.2794 -0.3239,0.1861 0.9559,-0.8434 0.1306,-0.1239 -0.0721,0.0503 -0.0778,0.0741 -0.8693,0.8677 -0.8693,0.8677 0.0145,0.0208 -0.8185,0.8927 -0.818,0.8927 0.1897,-0.2442 0.5811,-0.7221 0.5811,-0.7216 -0.1519,0.1146 -0.1208,0.0772 -0.1104,0.0648 -0.563,0.591 -1.6096,1.8387 -1.6096,1.8387 -0.239,0.323 -0.7169,0.9699 -0.7169,0.9699 0.0259,-0.142 0.902,-1.3473 1.0601,-1.55 l 0.4033,-0.4256 z m 1.5183,-1.6977 0.1809,-0.1845 0.1752,-0.1695 z m 2.0217,-1.848 -0.005,0.004 z m -2.0989,1.9885 0.001,-0.001 z m -5.6302,28.4576 -5e-4,-0.002 z m -0.5422,-0.8367 -5e-4,-5e-4 z m -0.0804,0.2831 -0.002,-0.004 -5e-4,-0.001 z m 0.6174,1.9905 -5e-4,-5e-4 z m 26.3131,17.3793 0.005,-5e-4 0.004,-5e-4 z m -22.8306,-10.266 -0.0311,-0.0384 z m 23.9938,10.3987 h 0.003 z m 9.8545,-2.7775 -10e-4,5e-4 z m -12.6693,3.2669 h -0.005 z m 4.031,-0.2478 h -6e-4 z m -0.4878,0.0907 h -10e-4 z m -0.309,0.0461 h -0.002 z m -1.086,0.1395 h -0.003 z m 25.0373,-18.527 5e-4,-0.001 z m -1.7449,3.3109 0.003,-0.005 z m -0.4753,0.5231 0.0611,-0.1125 0.003,-0.005 0.0394,-0.0731 0.002,-0.003 0.009,-0.0166 0.005,-0.01 m 1.9911,-4.611 0.015,-0.0343 10e-4,-0.002 z m 0.1063,-16.4473 v -5e-4 z m -0.0892,-0.3307 v -10e-4 l -0.002,-0.0125 -5e-4,-0.003 z m -0.2882,-0.7672 v 5e-4 z m 0.4302,1.0072 c 0.002,0.008 0.003,0.0104 0,0.005 z m -0.4919,-1.791 -0.007,-0.0176 -10e-4,-0.005 -0.003,-0.007 -0.002,-0.003 -0.006,-0.0151 -0.002,-0.004 z m 0.3406,1.114 c -0.1364,-0.4411 -0.0757,-0.2447 -0.0265,-0.0881 z m -0.9041,-2.3348 c -0.003,-0.008 -0.003,-0.007 0.003,0.005 z m 0.003,0.005 0.003,0.005 z m -0.4297,-0.6345 0.006,0.014 -0.002,-0.004 z m -1.2353,-2.3592 -0.013,-0.0238 c 0.006,0.0181 -0.7972,-1.0824 -0.7895,-1.072 -0.3307,-0.4769 -1.031,-1.3872 -1.0621,-1.4276 0.1762,0.2042 0.5163,0.6168 0.5163,0.6168 0.4463,0.6252 0.2701,0.365 0.0995,0.1193 0.4334,0.5489 1.2135,1.7168 1.2135,1.7168 z m 1.861,3.8366 c 0.324,0.7148 0.4162,0.972 0.4489,1.0596 z m -7.9613,-10.4366 0.002,0.001 z m -2.7951,-1.8631 -0.2784,-0.1306 0.1182,0.0462 z m -0.2784,-0.1306 -1.7666,-0.8304 c 0.4147,0.2835 1.4208,0.6936 1.7666,0.8304 z m -5.8245,-1.8382 c -6.1553,-0.8708 -4.9884,-0.7599 -2.7371,-0.4696 0.9419,0.1659 1.8309,0.2939 2.7371,0.4696 z m 17.4181,25.1441 v -5e-4 -0.004 z m 0.0218,-0.4675 v 0.005 z m -7.0816,16.245 c -0.1732,0.1939 -0.463,0.5075 -0.4946,0.5407 l 0.226,-0.2686 z m 0,0 c 0.0699,-0.071 0.0549,-0.0565 0.01,-0.0109 m 0.6096,-0.8812 0.002,-0.001 5e-4,-0.001 z m -0.7796,0.9387 -0.1649,0.1882 0.0892,-0.1078 z m -0.4375,0.4982 -0.008,0.01 -5e-4,5e-4 -0.2805,0.2835 c 0.0389,-0.0445 0.1156,-0.1342 0.1156,-0.1337 z m 0.029,-0.0663 0.002,-0.002 z m -25.8574,6.897 h -5e-4 l -10e-4,-5e-4 z m 19.9681,-1.8428 -10e-4,5e-4 z m 2.1756,-1.2281 -0.001,6e-4 -10e-4,0.001 z m -0.9797,0.7294 -0.001,5e-4 z m 2.5069,-1.3805 10e-4,-5e-4 z m -0.3976,0.3256 -10e-4,5e-4 z m -1.1462,1.016 c 0.007,-0.005 0.008,-0.006 10e-4,-5e-4 z m -5.3974,2.552 c -0.3416,0.1597 -0.4691,0.2037 -0.5593,0.2364 z m 0.0125,0.2302 -0.002,5e-4 z m -1.2892,0.5178 h -0.001 z m -1.0772,0.4049 -0.002,5e-4 z m 0.8942,-0.1783 -0.007,0.004 z m 0.2358,-0.099 0.004,-0.002 z m -1.932,0.6101 h 0.001 z m -6.4289,0.5567 c -0.4516,-5e-4 -0.8517,-0.003 -1.2084,-0.007 -0.8392,-0.0306 -1.6697,-0.1136 -2.5001,-0.2328 3.4887,-0.0503 5.6519,-0.085 7.0468,-0.1244 -1.0388,0.1674 -2.1015,0.2991 -3.0823,0.3561 z m 3.3383,-0.3644 c 1.9803,-0.056 2.4157,-0.1213 2.905,-0.2519 -0.0368,0.015 -0.1109,0.044 -0.1109,0.044 0.3142,-0.0829 0.9372,-0.2664 0.9372,-0.2664 0.0472,-0.0244 0.1582,-0.0653 0.1561,-0.0648 -0.2411,0.072 -0.7268,0.2006 -0.7268,0.2006 -0.4043,0.0627 -1.2,0.1576 -1.2659,0.1654 0.1732,-0.0208 0.9829,-0.1452 1.2146,-0.1809 -0.3567,0.0487 -0.9896,0.1296 -0.9896,0.1296 0.6485,-0.14 1.933,-0.4681 1.933,-0.4676 l 0.2955,-0.1037 -0.1513,0.0627 c 0.2187,-0.0663 0.6479,-0.2047 0.6479,-0.2047 0.9316,-0.2789 0.5801,-0.1732 0.2198,-0.0737 0.4386,-0.1487 1.2784,-0.536 1.2778,-0.536 -0.0876,0.0322 -0.2623,0.0949 -0.2623,0.0949 0.2157,-0.1166 0.0156,-0.0352 -0.1493,0.0228 -1.2793,0.4406 -1.2918,0.4526 -1.2451,0.4246 -0.069,0.0186 -0.2079,0.0549 -0.2074,0.0549 0.0348,0.0254 -0.6899,0.2354 -0.8724,0.2882 -0.1441,0.013 -0.8061,0.0923 -0.5759,0.0643 0.1062,-0.0254 0.3105,-0.0793 0.3354,-0.086 l -0.6449,0.1461 c 0.1255,0 -0.1918,0.056 -0.226,0.0612 0,0.006 -0.0135,0.014 -0.0135,0.014 0,0.001 5e-4,0.004 5e-4,0.004 -0.0767,0.0125 -0.2307,0.0368 -0.2307,0.0368 -0.707,0.1504 -1.4722,0.2966 -2.2508,0.422 z m 3.1093,-0.354 0.0627,-0.01 c -0.006,0.001 -0.0166,0.004 -0.0166,0.004 z m 1.0876,-0.379 h -6e-4 z m -0.6138,0.0778 -0.0182,0.005 c -0.1752,0.0243 -0.4924,0.0632 -0.6054,0.0772 z m -0.2177,-0.0285 10e-4,-6e-4 h 0.001 z m -0.6449,0.1461 h -5e-4 z m -0.226,0.0612 c -0.004,5e-4 -0.004,5e-4 5e-4,-5e-4 z m -22.6051,-4.6872 -0.003,-0.003 -0.003,-0.002 -10e-4,-0.002 -0.001,-5e-4 z m -0.7293,-0.5884 c -0.0208,-0.0197 0.0145,0.0104 0.0254,0.0197 z m 0.0254,0.0197 0.003,0.002 z m 1.5556,0.8994 5e-4,6e-4 z m -5.5316,-5.7307 -0.009,-0.0119 z m 1.2244,1.269 5e-4,0.001 0.001,0.001 z m 0.973,1.1135 5e-4,0.001 z m -5.5234,-27.4763 -5e-4,0.002 z m -0.5303,1.1037 c 0.0228,-0.0654 0.0104,-0.0327 0,0 z m 2.6018,-6.0496 -5e-4,6e-4 z m 5.4803,-5.7944 c -3.0263,2.9433 -2.3337,2.115 -1.4426,1.2519 0.003,-0.003 0.0274,-0.0327 0.0274,-0.0327 l 0.0825,-0.0917 c 0.0953,-0.0825 0.3722,-0.3251 0.3322,-0.2878 0.2665,-0.241 0.6309,-0.5422 1.0005,-0.8397 z m -1.3239,1.1181 c 0.2478,-0.2685 0.5095,-0.5049 0.7843,-0.7511 -0.1141,0.1171 -0.3375,0.3546 -0.3375,0.3546 z m 0.3234,-0.2784 -10e-4,0.001 -0.01,0.009 m 4.2139,-3.1818 -0.013,0.008 -0.002,0.001 m -0.4153,0.2882 -0.1363,0.0959 c 1.1897,-0.7449 2.735,-1.3918 3.6572,-1.9843 5e-4,0 0.2561,-0.1442 0.2213,-0.1265 -0.8439,0.3032 -2.4804,1.0357 -2.4804,1.0357 -0.4132,0.2452 -1.2213,0.7651 -1.2213,0.7651 -0.3126,0.2214 -0.9305,0.677 -0.93,0.6765 0.211,-0.2488 1.1233,-0.8729 1.495,-1.1161 -0.9989,0.5132 -2.8936,1.7206 -2.8936,1.7206 0.2628,-0.2235 0.6215,-0.463 0.9061,-0.6729 -0.3784,0.1825 0.0602,-0.0731 0.2603,-0.1949 0.1964,-0.1493 0.592,-0.4381 0.592,-0.4381 0.438,-0.2384 1.3327,-0.6795 1.3327,-0.6795 -0.2514,0.0886 -0.0684,-0.0959 -0.0746,-0.0897 0.2208,-0.0897 0.6625,-0.2597 0.6625,-0.2597 -0.1281,0.0953 -0.4007,0.2633 -0.4007,0.2633 0.2794,-0.1312 0.8444,-0.3795 0.8444,-0.3795 0.4997,-0.2669 1.5059,-0.7428 1.5738,-0.7755 -0.4033,0.2017 -1.1943,0.618 -1.1943,0.618 0.1695,-0.0695 2.1181,-0.8725 2.1181,-0.8725 0.006,0.009 0.4624,-0.1679 0.4624,-0.1679 -0.04,0.0171 -0.4495,0.199 -0.4495,0.199 5e-4,0.003 -0.0803,0.0368 -0.0803,0.0363 -0.804,0.3504 -0.3702,0.1628 -0.1218,0.057 l -0.3894,0.1763 c 0.2053,-0.07 0.6169,-0.2011 0.6169,-0.2011 5e-4,-6e-4 0.003,-0.002 0.003,-0.002 1.1508,-0.5142 2.2322,-0.9046 3.4431,-1.2602 -1.3001,0.3214 0.4515,-0.1835 0.4448,-0.1902 0.3499,-0.0685 1.0347,-0.1825 1.0342,-0.1825 1.0554,-0.2354 3.1813,-0.5039 3.259,-0.5132 -1.8542,0.1368 -4.3663,0.3717 -6.1723,0.8284 2.1404,-0.6242 2.2777,-0.6371 1.8962,-0.5894 l 1.2788,-0.3105 z m -0.1363,0.0959 -0.002,0.001 z m 12.691,-4.5581 h 0.003 z"
       style="fill:#ffffff;fill-rule:evenodd;stroke-width:1.008;stroke-dasharray:none"
       id="path3" />
    <path
       d="m 274.5548,136.1612 c 0.4655,-0.6952 -0.2685,0.0388 -0.7071,0.2125 0.1182,-0.5075 2.833,-2.5281 3.4234,-2.9211 -0.4375,0.2126 0.2789,-0.2472 0.211,-0.2058 -0.0233,-0.0565 -0.4064,0.2053 -0.833,0.5034 -0.8185,0.5438 -2.4095,1.6899 -2.4089,1.6894 0.0269,0.007 0.1441,0.0472 0.1332,0.0482 -0.0762,0.0425 -0.1094,-0.0964 -0.3028,0.0534 -0.1275,0.1114 -0.2208,0.2193 -0.3317,0.3452 0.0834,-0.0855 -0.006,0.0192 -0.007,0.0218 -1.1492,1.0907 -1.975,1.9398 -3.0506,3.0953 -0.0312,0.0565 -0.4832,0.933 -0.4884,0.9289 0.012,0.0104 -0.3582,0.536 -0.3576,0.535 -0.002,-0.0234 -0.005,-0.0695 -0.005,-0.0695 -0.1431,0.2488 -0.4495,0.732 -0.4645,0.7558 l 0.1586,-0.2981 c 0.197,-0.3048 0.1037,-0.17 0.0244,-0.0477 0.0928,-0.1664 0.2872,-0.494 0.2872,-0.494 l -0.003,-0.1228 c -0.198,0.2721 -0.2406,0.3364 -0.2825,0.4007 0.0891,-0.1581 0.0953,-0.1726 0.0953,-0.1732 0.0565,-0.0964 0.1727,-0.2794 0.1872,-0.3022 -0.0918,0.1224 -0.2784,0.2706 -0.4168,0.4463 0.009,-0.008 0.027,-0.0248 0.0264,-0.0248 -0.1446,0.268 -0.4722,0.7806 -0.4722,0.7806 -0.5376,1.1809 -0.5702,1.2099 -0.4857,1.1197 0,0 -0.006,0.0172 -0.006,0.0172 0.2007,-0.3836 0.6055,-1.1472 0.6055,-1.1472 0.1835,-0.2893 -0.312,0.6915 -0.2545,0.5738 -0.1146,0.2219 -0.3323,0.6661 -0.3323,0.6661 -0.495,1.0819 -0.4562,1.0036 -0.452,0.9959 0.2218,-0.3717 0.691,-1.099 0.691,-1.099 -0.0944,0.1654 -1.07,1.9672 -1.0762,1.9636 -0.0705,0.0892 0.0446,-0.1705 0.07,-0.2296 -0.0933,0.1985 -0.2659,0.5806 -0.2659,0.5806 -0.057,0.1726 -0.1846,0.5106 -0.1846,0.5106 0.0508,-0.1737 0.1104,-0.3334 0.1161,-0.3484 -0.1005,0.239 -0.2866,0.7071 -0.3053,0.7553 0.2452,-0.719 0.9005,-2.1026 0.9005,-2.1026 -0.1545,0.2872 -0.4412,0.8647 -0.4531,0.8891 0.5604,-1.4178 0.4297,-1.1353 0.3136,-0.9041 l 0.0581,-0.1477 c -0.1141,0.2343 -0.3287,0.6962 -0.3375,0.7159 0.1882,-0.8777 -0.4458,0.5961 -0.6547,1.1134 0.2561,-0.4846 -0.1322,0.3624 -0.1576,0.4142 -0.056,0.1659 -0.323,1.0145 -0.4266,1.0596 l -0.4826,1.2104 c -0.2017,0.6143 -0.2872,0.8911 -0.4033,1.5137 0.0642,-0.1529 0.1964,-0.4557 0.1964,-0.4557 -0.0129,0.0451 -0.1431,0.5148 -0.1436,0.5148 0.006,0.003 -0.056,0.2125 -0.056,0.2125 -0.0394,0.1529 -0.1223,0.4578 -0.1223,0.4578 -0.0104,0.0632 -0.0337,0.1902 -0.0337,0.1902 l -0.0684,0.3877 c -0.1457,0.5029 -0.1348,0.4018 -0.1047,0.2027 -0.0565,0.2691 -0.1478,0.8123 -0.1478,0.8118 -0.0466,0.2774 -0.141,0.832 -0.141,0.8315 -0.0259,0.351 -0.0814,1.0523 -0.0814,1.0523 -0.1715,2.2685 -0.1793,4.2145 0.0628,6.4813 0.1638,1.3592 0.3924,2.5572 0.7547,3.8786 0.1934,0.5624 0.5438,1.6992 0.5438,1.6992 0.0508,0.1058 0.1514,0.3194 0.1514,0.3194 -0.0109,-0.0524 -0.0316,-0.1566 -0.0316,-0.1566 -0.0234,-0.0669 -0.0146,-0.0467 -0.008,-0.0342 -0.0213,-0.1166 -0.0612,-0.3494 -0.0612,-0.3494 0.0373,0.0819 0.3556,0.7962 0.2177,0.8159 0.1042,0.2385 0.3214,0.7071 0.3214,0.7071 -0.0301,0.3888 1.0497,2.1383 1.9123,3.383 0.001,0.001 0.01,0.0134 0.01,0.014 1.5209,2.0403 2.6577,3.6789 4.4606,5.5985 0.0794,0.0715 0.8569,0.7812 0.8574,0.7807 0.1296,0.0793 0.0908,0.0435 0.054,0.0119 0.0311,-0.0913 -0.2655,-0.3468 -0.5635,-0.6112 l -0.1664,-0.1467 c -0.7486,-0.7325 -0.169,-0.1835 0.0186,-0.0187 -0.3364,-0.3815 -0.1363,-0.1658 0.0187,-0.0186 0.2623,0.2488 0.7993,0.7335 0.7988,0.7335 0.2001,0.1099 0.7144,0.5173 0.6853,0.4961 0.111,0.0949 0.2245,0.1851 0.3359,0.2784 0.2152,0.1762 0.648,0.5147 0.6677,0.5303 -0.3146,-0.2048 -0.9175,-0.6402 -0.9357,-0.6532 l 0.2525,0.2208 c 0.0176,0.0462 -0.3468,-0.2467 -0.4106,-0.297 -0.2452,-0.1218 -0.7304,-0.3769 -0.7298,-0.3769 0.0186,0.0182 0.2534,0.253 0.2534,0.253 -0.1016,-0.0187 -0.3846,-0.2913 -0.5479,-0.4126 0.5464,0.4867 1.6827,1.383 1.7356,1.4245 -0.7315,-0.4904 -0.9337,-0.6438 -1.5744,-1.2457 -0.005,0.005 -0.084,-0.0617 -0.0834,-0.0612 0.2001,0.1955 0.6101,0.5755 0.6101,0.5755 -0.1016,-0.0757 -0.2924,-0.2255 -0.3219,-0.2489 0.1446,0.1244 0.4287,0.3608 0.4287,0.3603 0.748,0.649 0.4567,0.4017 0.1742,0.1384 0.1332,0.1084 1.1523,0.8947 1.1523,0.8947 0.0202,-0.0186 0.8725,0.6299 0.8725,0.6294 0.3359,0.2104 1.0077,0.6334 1.0077,0.6334 0.2654,0.1763 -0.6583,-0.3597 -0.692,-0.3763 -0.3106,-0.1986 -0.9248,-0.5547 -0.9243,-0.5542 -0.0275,-0.0197 -0.3328,-0.2415 -0.3328,-0.2415 -0.5936,-0.4163 -0.281,-0.1851 -0.013,0.0171 0,0 0.0327,0.0243 0.0322,0.0243 5e-4,0 -0.0343,-0.0212 -0.0343,-0.0212 0.002,-0.004 -0.141,-0.0892 -0.141,-0.0887 0.0109,0.008 0.1328,0.0996 0.1328,0.0996 0.5038,0.3924 0.2332,0.1923 -0.0114,0.0155 -3.1772,-2.3602 -5.3342,-4.7769 -7.4373,-8.1298 -0.3748,-0.6184 -0.7117,-1.228 -1.0621,-1.8578 l -0.5412,-0.9985 c 0.1664,0.3132 0.4665,0.9544 0.466,0.9544 0.0109,-0.006 -0.002,-0.0176 0.009,-0.0244 0,0 0.3002,0.5775 0.2997,0.5775 0.0632,0.1223 0.762,1.3877 0.7615,1.3877 2.1165,3.4664 4.1615,5.8028 7.3781,8.2573 5.3015,3.3622 3.059,2.1212 -0.007,0.009 -3.1927,-2.455 -5.3248,-4.8131 -7.4009,-8.249 -0.2478,-0.4209 -0.4821,-0.8418 -0.7138,-1.2716 -0.0627,-0.1135 -0.3157,-0.5681 -0.3167,-0.5707 -0.0301,0.0383 -0.0643,0.1317 -0.0643,0.1317 0.0555,0.114 0.0415,0.0803 0.0269,0.0471 0.1587,0.3375 -0.006,0.0114 -0.0336,-0.044 -0.009,0.0254 -0.0296,0.0751 -0.0296,0.0751 0.0404,0.0721 0.4339,0.8046 0.4339,0.8046 -0.0207,0.009 -0.3147,-0.5158 -0.3686,-0.6133 0.1234,0.3193 0.5293,0.9912 0.5272,0.9865 0.0259,0.042 0.0778,0.1254 0.0778,0.1254 -0.0322,-0.044 -0.0363,-0.0425 -0.0368,-0.043 5e-4,5e-4 -0.0208,-0.0306 -0.0208,-0.0306 0.0342,0.0654 0.1042,0.1955 0.1037,0.1955 -0.0109,-0.0151 -0.0332,-0.0446 -0.0332,-0.0446 0.0166,0.0352 0.1908,0.4002 0.1908,0.4002 0.009,-0.003 0.2431,0.4598 0.2426,0.4598 0.0404,0.0446 -0.0783,-0.1706 -0.169,-0.351 -0.006,-0.01 -0.0695,-0.1114 -0.0695,-0.1109 -0.006,-0.0124 0.002,-0.003 0.003,-0.002 5e-4,0 0.0357,0.0456 0.0357,0.0451 -0.002,-0.005 -0.0249,-0.0513 -0.0249,-0.0513 0.0114,-0.008 -0.1923,-0.4106 -0.2115,-0.4484 l 0.2494,0.4261 c 0.0819,0.1296 0.0207,0.005 0.0145,-0.008 -0.0197,-0.0513 -0.0223,-0.0632 0.0218,-0.0129 0,0 0.0124,0.0161 0.0124,0.0161 -5e-4,-0.002 -0.005,-0.0203 -0.005,-0.0203 -0.0119,-0.0554 -0.008,-0.0689 0.0296,-0.0171 5e-4,0 0.2446,0.3914 0.2446,0.3914 l 0.1685,0.2639 c -0.1213,-0.183 -0.1151,-0.1675 -0.1151,-0.1675 0.07,0.1151 0.211,0.3432 0.211,0.3432 -0.0705,0.0669 0.649,1.171 0.7346,1.3068 0.1119,0.1353 0.3385,0.4044 0.3385,0.4039 0.1166,0.1441 0.4992,0.6173 0.4992,0.6173 0.2187,0.2618 0.6625,0.7641 0.6915,0.7973 -1.0088,-1.0347 -1.8263,-2.088 -2.6142,-3.2979 2.0315,3.2119 4.161,5.4352 7.2008,7.741 3.1933,2.2663 5.9547,3.554 9.7409,4.5571 3.7868,0.8828 6.8204,1.0611 10.6699,0.5619 l 5.3041,-1.3022 c 0.8807,-0.1975 2.609,-0.719 2.609,-0.719 l 0.3483,-0.1819 -0.2457,0.1482 c 0.1327,-0.044 0.394,-0.1358 0.394,-0.1358 0.1545,-0.0943 0.4774,-0.2582 0.4774,-0.2582 -0.0461,0.0296 -0.1384,0.0887 -0.1384,0.0882 -0.1892,0.0948 -0.1078,0.057 -0.0306,0.0192 l -0.171,0.1026 c 0.2358,-0.0855 0.7003,-0.2608 0.7003,-0.2608 0.4116,-0.2498 1.2348,-0.7547 1.2343,-0.7542 0.008,-0.005 0.0912,-0.057 0.0912,-0.057 -0.008,-0.0213 0.8227,-0.5376 0.8595,-0.5599 l -0.2017,0.1467 0.014,-0.0114 -0.4219,0.3007 c -0.028,0.0197 -0.2323,0.155 -0.2318,0.155 -10e-4,-5e-4 -0.029,0.0181 -0.029,0.0181 0.002,-0.001 0.0296,-0.0166 0.0296,-0.0166 -0.3442,0.2297 -0.6817,0.4453 -1.0368,0.6584 0.006,-0.002 0.0181,-0.005 0.0176,-0.005 -3.2342,1.6583 -5.9246,2.5204 -9.5216,3.0346 -3.9164,0.452 -6.9691,0.254 -10.7953,-0.6915 -1.0207,-0.2706 -1.9704,-0.5754 -2.9579,-0.9497 0.958,0.3789 1.9636,0.6874 2.9558,0.958 3.7992,0.9611 6.8981,1.1549 10.8021,0.7195 3.612,-0.5334 6.4963,-1.3913 9.7087,-3.1005 -0.009,-0.0176 0.9036,-0.4914 0.9041,-0.4909 -0.003,-0.008 0.2436,-0.1389 0.2431,-0.1389 0.2265,-0.1379 0.6703,-0.4214 0.6703,-0.4214 0.1695,-0.1068 0.7428,-0.5008 0.7428,-0.5008 -0.3084,0.1908 -0.6163,0.3686 -0.9263,0.5542 0.2011,-0.1296 1.9434,-1.3136 1.9257,-1.3375 0.9876,-0.7392 1.8709,-1.539 2.7558,-2.3959 0.8838,-0.8714 2.0642,-2.3747 2.7889,-3.3182 -0.013,-0.0145 0.4649,-0.6433 0.4649,-0.6428 l 0.2401,-0.3696 -0.1063,0.1799 c 0.2556,-0.3655 0.7138,-1.129 0.7138,-1.129 0.0788,-0.1115 0.2343,-0.3354 0.2343,-0.3354 0.2089,-0.3437 0.6055,-1.0435 0.6055,-1.0435 0.719,-0.6687 -1.3696,2.6494 -1.9455,3.4965 -2.4136,3.3062 -4.7852,5.5031 -8.248,7.6782 -1.0616,0.635 -2.1507,1.2312 -3.2865,1.7252 0.6438,-0.2742 1.9004,-0.8906 1.9004,-0.8906 0.2073,-0.0995 0.6168,-0.3043 0.6168,-0.3043 0.1499,-0.114 0.4713,-0.3048 0.4713,-0.3048 -0.0415,0.0285 -0.1239,0.0861 -0.1234,0.0855 -0.4552,0.2613 0.0808,-0.0414 -0.0145,0.0125 -0.0876,0.0601 -0.2665,0.1747 -0.266,0.1747 0.0835,-0.043 0.7589,-0.3992 0.7589,-0.3992 -0.005,-0.016 0.5734,-0.3255 0.5734,-0.325 0.2369,-0.1721 0.707,-0.5194 0.7065,-0.5194 0.5029,-0.3665 1.479,-1.1202 1.5111,-1.1446 l -0.1773,0.1545 0.0125,-0.009 c -0.1301,0.1125 -0.3924,0.3339 -0.3924,0.3339 0.005,-0.004 0.0155,-0.0109 0.015,-0.0109 -0.0866,0.0689 -0.2608,0.2058 -0.2608,0.2058 0.0104,-0.007 0.0306,-0.0213 0.0306,-0.0213 -0.2949,0.2359 -0.9014,0.6853 -0.9014,0.6853 0.354,-0.2156 1.0476,-0.6692 1.0476,-0.6692 0.2001,-0.1659 0.5904,-0.5033 0.5904,-0.5033 0.1841,-0.1509 2.0907,-1.6485 2.0518,-1.6889 1,-0.9533 1.8999,-1.9139 2.7656,-2.9916 0.1337,-0.1348 0.396,-0.408 0.396,-0.408 0.0617,-0.0788 0.4971,-0.6578 0.4971,-0.6573 -0.0264,-0.0295 1.2447,-1.7205 1.1939,-1.7531 1.6349,-2.6018 2.6468,-5.1605 3.4415,-8.1293 0.6692,-2.8708 0.9569,-5.3694 0.8123,-8.305 -0.0352,-0.8481 -0.1192,-1.6868 -0.2302,-2.5281 -0.0207,-10e-4 -0.1399,-0.8979 -0.1446,-0.9316 0.006,0.0871 0.0487,0.9435 0.0487,0.9435 -0.0145,0.004 0.0156,0.5764 0.0156,0.5764 0.0695,0.9964 0.0565,0.9051 0.0503,0.8766 0.0373,0.6112 0.0523,1.8361 0.0523,1.8361 -0.005,-0.1456 -0.0181,-0.4178 -0.0217,-0.4836 0.003,0.1233 0.002,0.3592 0.002,0.3592 0.009,0.1239 0.0742,1.4795 0.0285,1.4764 -0.0606,-0.0851 -0.0632,-0.5615 -0.0782,-0.7838 -0.1364,-1.3245 -0.0555,-0.2323 -0.0472,-0.1068 -0.005,1.0601 0.005,0.6428 0.0119,0.2301 0.0493,0.9253 -0.0316,2.7858 -0.0316,2.7858 -0.0363,0.1058 -0.015,-1.4369 -0.0197,-1.6723 0.009,-0.4448 -0.006,-1.2094 -0.0161,-1.6044 0.009,0.4863 0.003,1.1441 0.003,1.1436 -0.0383,0.7221 -0.1985,2.159 -0.1985,2.1585 -0.0446,0.7014 -0.2514,2.0995 -0.2514,2.0989 -0.0493,0.2338 -0.1571,0.5459 -0.2203,0.8352 0.1047,-0.5915 0.0845,-0.4956 0.0736,-0.4521 l 0.3701,-5.2284 c 0.0218,-0.2643 0.1705,-0.1176 0.1674,-0.9491 -0.0679,-1.0202 -0.1011,-2.0383 -0.2094,-3.0564 -0.015,-0.001 -0.085,-0.62 -0.0897,-0.663 0.009,0.2348 -0.0389,0.4857 -0.0124,0.6744 0,0 0,10e-4 0,10e-4 0.1503,1.2328 0.1788,2.4007 0.1752,3.6427 -0.1949,-1.198 -0.1638,-0.1068 -0.1778,0.4168 0.002,-0.6143 -0.0534,-1.8221 -0.057,-1.8973 l -0.0151,0.2763 c 0.003,0.1711 0.0151,0.2623 -0.0181,0.4365 -0.003,0.6226 0.006,0.3649 0.0135,0.1218 0.0321,0.3821 0.0445,1.1493 0.0445,1.1493 0.0415,0.1938 0.0151,0.917 0.0156,0.8542 -0.0394,0.0213 -0.1192,0.0628 -0.1192,0.0628 -0.1239,1.5194 -0.0939,0.7921 -0.0923,0.7397 0.0202,-0.2426 0.0503,-0.7252 0.0503,-0.7252 -0.0192,0.0238 0.028,-0.6257 0.0269,-0.6055 0.003,0.0809 0.008,0.2431 0.008,0.2431 0.0166,-0.1394 0.0576,-0.4141 0.0576,-0.4141 -0.0285,-0.4355 -0.0399,-1.3038 -0.0399,-1.3038 -0.196,-1.2104 -0.0762,-1.2244 -0.1768,-1.1746 0.0684,-0.9456 0.0741,-0.859 0.0829,-0.8092 0.0213,0.155 0.0571,0.4551 0.0602,0.4841 -0.0358,-1.086 0.03,-0.296 0.0596,-0.002 -0.0119,-0.1706 -0.0275,-0.6993 -0.0529,-0.8046 -0.008,-0.058 -0.099,-0.6593 -0.099,-0.6593 -0.0166,-6e-4 -0.1213,-0.6864 -0.1213,-0.6864 -0.0513,-0.3416 -0.17,-1.0233 -0.17,-1.0233 0.1244,0.1918 0.1228,0.2089 0.1684,0.2991 0.003,0.1208 0.005,0.3624 0.005,0.3624 0.0202,0.098 0.1638,1.0425 0.1638,1.0425 0.0866,0.7304 0.0524,0.3618 0.0187,-0.002 -0.0114,-10e-4 -0.0482,-0.4583 -0.0482,-0.4577 0.0124,0.0559 0.0922,0.452 0.0922,0.452 -0.004,0.001 0.0239,0.1301 0.0254,0.1374 l -0.002,-0.1405 c -0.0109,-0.4707 -0.0736,-0.6382 -0.1446,-1.1011 0.0502,0.0768 0.1612,0.689 0.1912,0.8533 -0.0306,-0.3302 -0.0176,-0.2592 -0.006,-0.2063 -0.0311,-0.4044 -0.1156,-1.1555 -0.1384,-1.3551 0.01,0.1934 -0.3058,-0.9341 -0.2586,-0.7905 -0.1229,-0.8813 0.0813,-0.1275 0.1498,0.1265 0.2187,-0.0327 -0.1312,-1.7646 -0.2732,-2.4644 -0.6817,-2.0378 -1.6184,-3.7686 -2.7993,-5.5591 -1.7345,-2.5017 -2.7567,-3.2949 -4.6395,-5.3508 -0.009,-0.006 -0.027,-0.0217 -0.027,-0.0217 -0.002,0.003 0.01,0.015 0.01,0.015 -0.098,-0.0881 -0.2955,-0.2623 -0.2955,-0.2623 l 0.2245,0.3069 c -0.1452,-0.1612 -0.4101,-0.4806 -0.4666,-0.549 0.1307,0.1649 0.3805,0.4681 0.38,0.4676 -0.2685,-0.2623 -0.8097,-0.7817 -0.8097,-0.7817 -0.0187,0.0109 -0.7034,-0.5106 -0.6895,-0.5003 -0.3291,-0.2804 -1.0072,-0.8185 -1.0072,-0.8185 0.1467,0.0959 0.436,0.2913 0.436,0.2913 0.4468,0.3873 0.2623,0.2229 0.0829,0.0581 0.3349,0.2405 0.9746,0.7641 0.9741,0.7641 -0.0259,-0.0306 -0.0788,-0.0907 -0.0783,-0.0907 0.0181,-0.007 0.5744,0.4437 0.5552,0.4282 -0.4401,-0.4505 0.4199,0.3296 0.4043,0.325 l 0.01,0.01 c 0.0212,0.0166 0.5826,0.4645 0.5852,0.4614 0.1861,0.1695 0.4173,0.3608 0.6439,0.5609 -0.5112,-0.5459 -1.5915,-1.5479 -1.635,-1.5883 l 0.0383,0.0305 c -0.2058,-0.1861 0.0628,0.0337 0.0607,0.0363 0.5033,0.3997 -0.4012,-0.4064 -0.5671,-0.5515 -0.2499,-0.2364 -0.4225,-0.4225 -0.7014,-0.6573 -0.042,-0.0311 -0.9263,-0.6895 -0.9237,-0.6921 -0.3951,-0.2934 -0.8269,-0.5313 -1.2582,-0.7656 0.0804,0.0482 0.2401,0.1462 0.2401,0.1456 0,0.0109 0,0.0317 0,0.0317 0.059,0.0383 0.9636,0.6609 0.9636,0.6609 -0.006,0.0124 0.5407,0.4271 0.5402,0.4271 0.2649,0.2152 0.7656,0.647 0.8273,0.7004 l -0.1835,-0.1478 c 0.1452,0.1172 0.4111,0.3411 0.4111,0.3411 0.4546,0.4101 1.3229,1.2747 1.3229,1.2742 -0.2182,-0.211 -0.6651,-0.6231 -0.6651,-0.6231 l -0.1654,-0.1534 0.1815,0.1742 c -0.2908,-0.2608 -0.8751,-0.7538 -0.8745,-0.7538 -0.1047,-0.1653 -1.2079,-0.9564 -1.2768,-1.0087 l -0.2011,-0.1203 c -0.0125,0.014 -0.6107,-0.3675 -0.6091,-0.3665 -0.0508,-0.0285 -0.153,-0.0861 -0.153,-0.0861 0.155,0.1198 0.4536,0.3582 0.478,0.3774 l -0.2084,-0.1436 c -1.3794,-1.0429 -1.3628,-1.0404 -1.1347,-0.9128 -0.3836,-0.2483 0.2058,0.0839 0.1368,0.0451 -1.099,-0.7729 -3.2357,-1.5479 -4.5457,-1.9787 -1.1466,-0.4043 -2.371,-0.6692 -3.568,-0.8729 -0.005,0.0145 -1.4188,-0.2318 -1.4458,-0.2224 -0.3291,-0.1498 -0.2928,-0.1436 -0.2623,-0.141 -0.7221,-0.1348 -2.1798,-0.3157 -2.1798,-0.3157 l -1.1705,0.099 c 1.4733,-0.0534 3.3783,0.1145 4.5939,0.917 0.0296,0.007 0.3499,0.0892 0.3499,0.0892 -5e-4,0.009 0.5532,0.184 0.5526,0.184 0.7024,0.2136 2.0326,0.7133 2.1964,0.775 -0.3582,-0.1281 -1.0481,-0.3531 -1.0481,-0.3525 -0.1566,-0.0612 -1.7123,-0.563 -1.7123,-0.5635 -2.0419,-0.5293 -3.906,-0.7962 -6.0116,-0.79 -0.6465,-0.006 -1.9383,0.0357 -1.9377,0.0357 0.1296,0.0851 -2.0062,0.5583 -2.0067,0.5475 l -1.2457,0.5028 c 0.4075,-0.1405 0.8237,-0.2737 1.2592,-0.3955 1.3027,-0.3323 2.3597,-0.4904 3.7095,-0.421 2.1529,0.1618 4.0164,0.4567 6.1055,0.9964 3.5064,0.9673 5.9091,2.1372 8.854,4.3212 0.4686,0.3654 0.9066,0.7319 1.3498,1.1275 0.4422,0.4401 0.2069,0.2218 -0.0331,0.0202 l 0.002,0.002 -0.005,-0.004 c 0.006,0.0259 -0.1343,-0.0705 -0.155,-0.085 2.3347,2.0704 3.9096,3.977 5.4399,6.6809 0.3379,0.5925 0.1534,0.2659 0.008,-0.005 -1.1212,-2.0357 -2.2477,-3.5737 -3.8173,-5.3077 1.595,1.7153 2.7339,3.243 3.8889,5.2657 1.2431,1.9678 1.4737,2.4727 1.5012,2.5261 0.4349,0.7377 0.353,0.5345 0.3074,0.4095 -0.1197,-0.3209 0.1856,0.3696 0.1618,0.31 0.001,-0.006 0.004,-0.0197 0.004,-0.0192 -0.0949,-0.2141 -0.2908,-0.6345 -0.2908,-0.6345 -0.006,-0.01 -0.0166,-0.0295 -0.0166,-0.029 0.002,0.005 0.007,0.015 0.007,0.015 -0.1296,-0.2711 -0.3955,-0.7931 -0.423,-0.8465 l 0.113,0.1986 -0.0134,-0.0296 c 0.0793,0.1415 0.2338,0.4261 0.2338,0.4256 0.0445,0.0793 0.1254,0.2343 0.1332,0.2493 l -0.0125,-0.029 0.1276,0.253 c 0.006,-0.1954 -0.1172,-0.4437 -0.2214,-0.6682 -0.0306,-0.0539 -0.0902,-0.1617 -0.0897,-0.1617 -0.0637,-0.1317 -1.1425,-2.1876 -1.1425,-2.1876 -0.0249,-0.0788 0.0125,-0.0207 0.0187,-0.0109 0.3027,0.4577 0.5847,1 0.8315,1.4898 l -0.1773,-0.3758 -0.004,-0.007 0.008,0.0146 -0.004,-0.007 -0.006,-0.013 -0.002,-0.002 c -0.0819,-0.1571 -0.2286,-0.4179 -0.2286,-0.4179 -0.042,-0.071 -0.409,-0.6858 -0.409,-0.6858 -0.9015,-1.4546 -0.451,-0.7428 0.0145,-0.008 -0.0145,0.013 0.3862,0.6615 0.4116,0.7019 l -0.3981,-0.7097 c -1.7029,-2.8568 -0.1068,-0.3602 0.086,-0.0497 -0.0171,0.0155 0.5122,0.9066 0.5122,0.9066 0.1757,0.3048 0.5096,0.9248 0.5096,0.9248 0.211,0.3116 0.536,1.0285 0.7506,1.55 -0.1986,-0.4292 -0.6413,-1.2649 -0.6413,-1.2649 -0.0528,-0.0871 -0.1565,-0.2628 -0.1565,-0.2628 0.1,0.2157 0.2898,0.647 0.2898,0.647 0.1285,0.2555 0.3654,0.7755 0.3654,0.7755 0.6864,1.1337 0.6874,1.37 1.1788,2.5255 -0.3302,-1.1368 -0.4167,-1.4033 -0.9543,-2.5255 0.0487,0.1435 -0.0223,-0.0457 -0.0171,-0.0322 -0.0762,-0.1586 -0.2307,-0.4691 -0.2307,-0.4691 -0.1301,-0.3116 -0.184,-0.4583 -0.3592,-0.7869 -0.1664,-0.3235 -0.5106,-0.9445 -0.5428,-1.0031 1.0741,1.7324 1.5013,2.6049 2.085,4.5789 0.3053,0.8061 0.7894,2.4841 0.7894,2.4835 -0.1648,-0.2856 -0.4069,-1.1627 -0.5925,-1.6386 -0.003,0.0638 -0.008,0.1908 -0.008,0.1908 -0.3981,-1.2436 0.026,0.5033 0.0679,0.7143 0.1271,0.4759 0.324,1.4422 0.324,1.4422 0.0171,0.0964 0.1436,1.087 0.1436,1.087 -0.003,5e-4 0.071,0.6371 0.0705,0.6371 l 0.008,0.1177 c 0.001,0.0114 0.003,0.0342 0.003,0.0337 0.226,1.3483 0.1161,4.3129 0.1161,4.3124 -0.1487,1.3462 -1.0419,3.9495 -1.072,4.0397 0.8092,-2.8775 1.0684,-5.6809 0.7652,-8.6543 -0.4179,-0.1872 -0.4889,1.0284 -0.3531,1.3607 0,0 -0.007,0.0824 -0.007,0.0824 0.0321,0.7201 -0.0192,0.2737 -0.027,0.2146 -5e-4,0.004 -0.057,0.4661 -0.099,0.3468 0.0135,0.2136 0.014,0.1384 0.013,0.0648 0.015,0.4194 0.001,0.252 -0.003,0.212 -0.009,-0.1301 -0.0291,-0.3903 -0.0291,-0.3903 0.005,0.0218 0.0135,0.0648 0.0135,0.0648 -0.0306,-0.2556 -0.043,-0.8237 -0.042,-0.8144 0.0146,0.0156 0.0436,0.0467 0.0436,0.0467 -0.0119,-0.0923 -0.0368,-0.2763 -0.0368,-0.2763 -0.009,0.0606 -0.0322,0.1825 -0.0322,0.1825 -0.002,0.072 -0.006,0.0549 -0.008,0.0492 -0.1793,-0.0218 -0.3737,-1.2218 -0.4261,-1.4929 l -0.0482,-0.1986 0.0353,0.2001 c 0.2747,1.7853 0.3328,3.3793 0.2747,5.1802 -0.0124,0.494 -0.1705,1.4707 -0.1705,1.4707 -0.0125,0.2146 -0.0539,0.6427 -0.0534,0.6427 -0.0394,0.3474 -0.1384,1.0394 -0.1384,1.0394 l -0.008,0.0394 -0.0845,0.3183 0.1068,-0.6506 0.0658,-0.7361 c -0.0472,0.3079 -0.1586,0.9144 -0.1586,0.9139 -0.008,0.071 -0.0244,0.1685 -0.042,0.2613 -0.0171,0.0679 -0.0425,0.1711 -0.0306,0.1177 0.0373,-0.267 -0.0897,0.3919 -0.0746,0.3286 0.0456,-0.1809 -0.0151,0.1488 -0.0291,0.2271 l -0.0627,0.1969 0.0534,-0.2623 -0.1586,0.6288 c -0.9658,3.4333 -2.1612,5.9023 -4.2642,8.7845 -0.007,-0.003 -0.168,0.2209 -0.168,0.2209 -2.2373,2.8174 -4.3067,4.655 -7.3895,6.5233 -2.1026,1.2006 -3.9231,1.9735 -6.2667,2.5753 -0.2292,0.0581 -0.6817,0.1623 -0.6983,0.1659 0.1711,-0.0192 0.5127,-0.0524 0.5127,-0.0524 0.1187,-0.0259 0.0674,-0.016 0.042,-0.0109 0.2265,-0.0549 0.1332,-0.0285 0.0995,-0.0181 l -0.0923,0.0238 c 0.5023,-0.0539 1.48,-0.3312 1.4795,-0.3312 1.834,-0.5899 3.3373,-1.2457 5.02,-2.185 3.229,-1.8962 5.4036,-3.7754 7.7254,-6.712 0.6107,-0.8014 1.1368,-1.579 1.6594,-2.44 -0.0228,0.0187 -0.0202,0.0171 -0.0265,0.0223 0.1182,-0.1716 -0.0316,0.0969 -0.0471,0.1234 0.2104,-0.2577 0.5251,-0.8362 0.5391,-0.8616 l -0.0472,0.1021 c 0.2286,-0.3442 0.2105,-0.3794 0.3743,-0.7464 0.3457,-0.717 0.9372,-2.1949 0.9372,-2.1949 -0.0985,0.324 -0.3146,0.9668 -0.3146,0.9668 -0.45,0.9585 -0.2515,0.5671 -0.0669,0.1856 -0.0451,0.1296 -0.1441,0.3784 -0.1519,0.3986 l 0.3877,-0.8496 c -0.001,0.1477 -0.3877,0.9818 -0.5106,1.2483 -0.1192,0.2415 -0.3618,0.7221 -0.3613,0.7221 0.1115,-0.153 0.3276,-0.4629 0.3276,-0.4624 0.1271,-0.2172 0.1068,-0.1711 0.0939,-0.1379 0.056,-0.0757 0.1612,-0.2354 0.1607,-0.2348 -0.0534,0.005 -0.1602,0.014 -0.1602,0.014 0.1467,-0.2473 0.4546,-0.7527 0.4541,-0.7527 0.0627,-0.1405 0.015,-0.0415 -0.0135,0.0124 0.1846,-0.381 0.1255,-0.2431 0.0975,-0.1737 -0.0177,0.0405 -0.0534,0.1208 -0.0534,0.1208 0.0741,-0.0617 -0.2468,0.6791 -0.2224,0.6262 0.0575,-0.0891 0.1742,-0.2664 0.1737,-0.2664 0.0228,-0.0539 0.2337,-0.5682 0.24,-0.565 0.0181,-0.0197 0.006,0.0134 0.004,0.0196 -0.0394,0.1099 -0.1203,0.3282 -0.1203,0.3277 -0.0109,0.0254 -0.0342,0.0762 -0.0337,0.0757 0.0965,-0.1519 0.2825,-0.4567 0.2825,-0.4567 0.0208,-0.0555 0.2515,-0.5977 0.2515,-0.5977 -0.0306,0.0591 -0.099,0.2203 -0.1711,0.3789 0.041,-0.1135 0.4111,-1.141 0.4111,-1.141 0.0352,-0.01 -0.1706,0.5988 -0.2048,0.7045 -0.0705,0.1815 -0.2177,0.5402 -0.2177,0.5402 0.072,-0.1208 0.2146,-0.3624 0.2141,-0.3624 0.1768,-0.4629 0.4878,-1.3939 0.4997,-1.4302 -0.0928,0.3774 -0.3219,1.1239 -0.3219,1.1239 0.1244,-0.2229 0.3644,-0.6682 0.3644,-0.6682 0.1446,-0.435 0.3971,-1.3006 0.4137,-1.3597 -0.0736,0.3385 -0.2338,1.0139 -0.2338,1.0134 0.0498,-0.1016 0.1524,-0.3038 0.1519,-0.3038 0.0228,-0.1011 0.3483,-1.4131 0.367,-1.4038 -5e-4,0 0.007,-0.028 0.007,-0.028 -0.001,0.003 -0.0124,0.0265 -0.0124,0.0265 -0.006,-0.002 -0.1,0.2042 -0.1,0.2037 0.006,-0.0181 0.0653,-0.213 0.0653,-0.213 -0.004,-0.002 0.0414,-0.14 0.0414,-0.14 l 0.0949,-0.2348 -5e-4,0.0166 c 0.9574,-2.395 0.1529,0.4375 0.1628,0.4385 -0.2053,0.5858 -0.2027,0.5915 -0.2017,0.5821 -0.0394,0.1006 -0.1244,0.2986 -0.1244,0.2986 -0.0337,0.1006 -0.028,0.0679 -0.027,0.0622 -0.1689,0.3717 -0.5318,1.1032 -0.5318,1.1032 -0.2312,0.8029 -0.8548,2.3664 -0.8548,2.3664 -0.0964,0.1135 0.3888,-1.2944 0.4468,-1.4785 l 0.1421,-0.3939 -0.2815,0.5002 -0.9056,2.2265 c -0.254,0.48 0.1042,-0.4096 0.1394,-0.493 -0.0192,0.0197 -0.0943,0.0907 -0.1016,0.0228 0.3515,-0.5879 0.3224,-0.6407 0.5827,-1.2773 -0.169,0.2815 -0.4977,0.8424 -0.5106,0.8652 0.1876,-0.4635 -0.5003,0.7786 -0.4298,0.6423 0.0244,-0.056 0.0726,-0.168 0.0726,-0.168 0.003,-0.005 0.008,-0.0145 0.008,-0.0145 -0.069,0.0954 -0.2053,0.2861 -0.2053,0.2861 -0.1011,0.2167 -0.3116,0.6423 -0.3116,0.6423 -1.4618,2.3597 -2.1507,3.4089 -2.5022,3.9107 1.5432,-2.0419 1.5375,-2.0191 1.4012,-1.7838 0.7299,-1.0761 1.9009,-3.3606 1.9009,-3.3606 -0.3525,1.0543 -1.7205,3.2549 -2.3871,4.1942 -0.0151,0.0202 -0.1944,0.2644 -0.1929,0.2649 -0.0129,-0.006 -0.3737,0.5313 -0.3737,0.5313 -0.0674,0.113 -0.2131,0.3318 -0.2229,0.3463 0.2203,-0.2737 0.6469,-0.8263 0.6469,-0.8263 5e-4,-10e-4 0.005,-0.01 0.005,-0.01 -0.002,-0.001 0.0306,-0.0559 0.057,-0.0995 0.1851,-0.2395 0.1602,-0.1954 0.1239,-0.1332 0.1405,-0.1332 -0.0912,0.1908 -0.1415,0.2628 -0.2618,0.3712 -0.5355,0.7314 -0.8206,1.085 -0.2369,0.2763 -0.7278,0.8144 -0.7278,0.8138 0.1425,-0.1114 -0.6921,0.8346 -0.5941,0.7201 -0.323,0.3411 0.0591,-0.056 -0.009,0.0145 l -0.126,0.1545 c 0.1721,-0.1887 0.5018,-0.5651 0.5189,-0.5843 -0.2125,0.267 -0.6501,0.788 -0.6501,0.788 -0.9533,0.9808 0.7667,-0.7651 0.817,-0.8051 l 0.1555,-0.2068 c -0.9916,1.169 0.4992,-0.7309 0.381,-0.5733 0.2084,-0.2385 0.3199,-0.3587 0.5252,-0.6382 0.0492,-0.0658 0.5453,-0.7568 0.5453,-0.7568 -0.004,-0.004 0.0819,-0.1203 0.098,-0.1415 l -0.0918,0.1462 c -0.3317,0.5261 -0.6656,1.0119 -1.0445,1.5059 0.1415,-0.1644 0.4162,-0.4961 0.4162,-0.4956 -0.1,0.1389 -1.2042,1.6381 -1.2648,1.5759 -0.006,0.005 -0.1042,0.1083 -0.0747,0.0446 -0.2047,0.2073 -0.6246,0.6117 -0.6241,0.6117 -0.3634,0.3758 -0.3737,0.3924 -0.3525,0.3639 0.0394,-0.0488 0.1182,-0.1457 0.1177,-0.1457 -0.0824,0.0762 -0.2499,0.227 -0.2499,0.227 -0.3634,0.3826 -1.1352,1.1042 -1.1347,1.1042 -0.8253,0.6604 -0.2903,0.2099 0.0549,-0.1218 -0.2291,0.1975 -0.6972,0.5816 -0.6967,0.5811 -1.3151,0.7744 -2.3648,1.3877 -3.2139,1.8765 -0.3733,0.2297 -0.7506,0.4443 -1.1322,0.6449 -1.7179,0.9663 -2.2855,1.2094 -2.7925,1.3556 l 0.5448,-0.3251 c -0.5889,0.2359 -1.1891,0.4541 -1.8014,0.6625 -1.5427,0.4749 -3.0802,0.7169 -4.6737,0.9507 -2.2549,0.3095 -4.1496,0.4121 -6.4398,0.3147 2.2736,0.2094 4.2082,0.2063 6.4745,-0.0363 0.634,-0.028 0.2401,0.0182 0.006,0.0513 -2.2851,0.3002 -4.2352,0.2779 -6.5384,0.0342 -0.0171,-0.016 0.1348,-0.0119 0.1737,-0.0171 -0.1016,-0.0129 -0.3043,-0.0399 -0.3043,-0.0399 -0.5117,-0.0311 -1.5308,-0.1456 -1.5308,-0.1456 0.0798,0.0487 -0.0124,0.0694 -0.0124,0.0694 0.2099,0.0218 0.6298,0.0736 0.6298,0.0736 0.2312,0.0114 0.6874,0.0602 0.7149,0.0633 l -0.1535,-0.002 c 0.2431,0.0238 0.7159,0.0612 0.7636,0.0648 -0.2701,-0.009 -0.8025,-0.0368 -0.802,-0.0363 -0.1591,-0.0166 -0.4769,-0.056 -0.4763,-0.056 0.1026,0.0161 0.3022,0.0425 0.3203,0.0451 -0.0529,-0.002 -0.1524,-0.0114 -0.1524,-0.0114 0.1358,0.0202 0.4075,0.0581 0.4069,0.0581 -0.087,0.0461 -0.2617,0.1363 -0.2617,0.1358 -0.112,-0.0311 -0.3334,-0.1026 -0.3328,-0.1026 -0.1203,-0.008 -0.3598,-0.0405 -0.3598,-0.04 0.0638,-0.007 0.2271,0.0125 0.3105,0.0208 -0.0731,-0.0249 -0.2136,-0.0799 -0.2136,-0.0799 -0.1088,-0.009 -0.3255,-0.0305 -0.3255,-0.03 -0.098,-0.009 -0.2913,-0.0316 -0.2913,-0.0316 -0.3982,5e-4 -1.5516,-0.2307 -1.9828,-0.3365 0,0 -0.007,-0.001 -0.007,-0.001 -0.0866,-0.0337 -0.008,-0.0208 0.0119,-0.0177 0.01,-0.0269 1.1369,0.1778 1.1369,0.1778 0.1073,-0.0264 0.6889,0.0654 0.9097,0.0887 -0.1721,-0.0358 -0.058,-0.0145 -0.0498,-0.013 -0.1809,-0.0725 -0.1721,-0.0627 -0.1933,-0.0793 -0.7086,-0.1285 -0.2841,-0.0834 -0.211,-0.0772 -0.043,-0.0166 -0.1296,-0.0498 -0.1291,-0.0498 0.5044,0.0498 0.8735,0.126 1.4095,0.1519 0.3385,0.0347 1.0176,0.0855 1.0176,0.0855 -0.0275,-0.008 -0.0829,-0.0254 -0.0824,-0.0254 -0.0239,6e-4 -0.0685,-0.005 -0.0679,-0.005 -0.0602,-0.001 -0.0674,-0.008 -0.0674,-0.008 0.0394,0.003 0.1187,0.007 0.1187,0.007 -0.0664,-0.0181 -0.198,-0.0554 -0.198,-0.0549 -0.535,-0.0881 -1.5956,-0.3121 -1.5951,-0.3121 -0.5013,-0.0772 -1.494,-0.2913 -1.494,-0.2913 -0.0326,-0.008 -0.3701,-0.098 -0.3701,-0.098 0.004,-0.0409 -1.3426,-0.3732 -1.3317,-0.408 -0.0472,-0.0145 -0.097,-0.0336 -0.1436,-0.0508 -0.2877,-0.0487 -1.5313,-0.4245 -1.7184,-0.5769 0.099,0.0269 0.2975,0.0788 0.297,0.0788 -0.2203,-0.1364 -0.7408,-0.3364 -1.1171,-0.4894 0.1301,0.055 0.3898,0.1664 0.3898,0.1664 -0.1089,-0.0321 -1.0435,-0.3701 -1.0435,-0.3701 -0.2882,-0.1275 -0.5858,-0.2944 -0.8595,-0.4505 -0.3722,-0.2078 0.8725,0.3168 0.7263,0.2582 0.1684,0.0809 0.5064,0.2358 0.5064,0.2358 0.2048,0.0726 -0.1,-0.0725 -0.1757,-0.1067 0.3805,0.1643 1.1228,0.4738 1.1223,0.4738 0.0425,0.015 0.128,0.0445 0.128,0.0445 -0.0492,-0.0129 -0.0497,-0.0124 -0.0497,-0.0124 0,0 -0.0482,-0.0161 -0.0482,-0.0161 l 0.2006,0.0861 -0.0488,-0.0114 c 0.6205,0.2872 0.2934,0.1342 -0.0368,-0.043 0.4661,0.1223 0.0809,-0.0503 -5e-4,-0.0887 0.2831,0.1089 0.8408,0.3059 0.8968,0.3256 l -0.5495,-0.2297 c 0.4044,0.1529 1.2146,0.4272 1.2141,0.4272 0.2177,0.0979 0.7376,0.282 0.7376,0.282 -0.2099,-0.084 -0.6168,-0.2598 -0.6355,-0.2675 0.5495,0.1767 1.0513,0.3359 1.6174,0.453 0.004,-0.009 0.4712,0.0819 0.5038,0.0882 -0.1234,-0.0374 -0.3639,-0.1198 -0.3639,-0.1198 -0.0103,-0.003 -0.1234,-0.0295 -0.1234,-0.0295 -3.5929,-0.9399 -6.2143,-2.1404 -9.2365,-4.2876 -3.1035,-2.3477 -5.1226,-4.5482 -7.1272,-7.8664 -1.114,-2.0035 -2.4836,-4.8915 -2.8703,-7.2097 -0.0223,-0.0984 -0.338,-1.5152 -0.3333,-1.5157 l -0.004,-0.0674 -0.0187,-0.0638 c -0.0664,-0.3229 -0.0436,-0.1881 -0.0187,-0.0648 -0.0777,-0.2659 -0.1959,-0.8112 -0.1959,-0.8112 -0.0389,-0.2364 0.1602,0.5272 0.1348,0.4339 0.044,0.2016 0.1378,0.6008 0.1378,0.6008 0.0804,0.3012 0.281,0.8859 0.2888,0.9087 -0.0456,-0.2747 -0.1623,-0.8139 -0.1623,-0.8139 -0.003,6e-4 -0.007,0.002 -0.007,0.002 0.0202,0.3432 -0.0342,0.0456 -0.0555,-0.0575 -0.0166,-0.014 -0.0492,-0.0415 -0.0492,-0.0415 -0.006,-0.2509 -0.0892,-0.7252 -0.0887,-0.7252 l 0.0856,0.4214 c -0.013,-0.0814 -0.1846,-1.0969 -0.2043,-1.0881 -0.2504,-0.4111 -0.2042,-0.0425 -0.198,0.0249 0.0383,0.3458 0.1099,0.6775 0.1944,1.0145 0.0399,0.1565 0.1042,0.4733 0.1042,0.4733 0.0321,0.1461 0.1778,0.7304 0.1939,0.791 l -0.0218,-0.0715 c 0.0606,0.2524 0.1907,0.7433 0.1907,0.7433 0.001,0.006 0.004,0.0166 0.004,0.0166 -0.0145,0.3059 -0.182,-0.5235 -0.2214,-0.7065 -0.0772,-0.2613 -0.4644,-2.2581 -0.4644,-2.2581 -0.1607,-1.0922 -0.3427,-2.6401 -0.2955,-3.7443 0.0363,-0.579 0.0368,-0.5292 0.0389,-0.5137 1.0175,-4.2108 1.6012,-6.6176 1.9304,-7.9675 0.3318,-0.8429 0.6625,-1.6236 0.662,-1.6236 0.2644,-0.6806 0.9491,-1.9584 0.9699,-1.9978 l -0.111,0.2198 0.013,-0.0254 c -0.0788,0.1622 -0.2312,0.4872 -0.2312,0.4872 -0.0249,0.0508 -0.0705,0.153 -0.0705,0.153 0.663,-1.2524 1.663,-2.5603 2.1756,-3.5489 0,0 0.1499,-0.2529 0.1286,-0.2198 -0.5795,0.6838 -1.6303,2.1368 -1.6303,2.1368 -0.2353,0.4189 -0.6749,1.2737 -0.6749,1.2732 -0.1576,0.3421 -0.4572,1.0263 -0.4676,1.0507 0.0591,-0.3224 0.5365,-1.3172 0.7366,-1.7138 -0.6086,0.944 -1.6459,2.9367 -1.6453,2.9367 0.087,-0.2743 0.3229,-0.7517 0.4484,-1.0358 -0.2338,0.3417 0.0129,-0.0886 0.1275,-0.2991 0.0954,-0.2275 0.2939,-0.6754 0.2939,-0.6754 0.2556,-0.4183 0.7957,-1.2265 0.8139,-1.254 -0.1727,0.2012 -0.1068,-0.0492 -0.1089,-0.0409 0.1431,-0.1846 0.4318,-0.5407 0.4432,-0.5552 -0.0632,0.1467 -0.2151,0.4276 -0.2151,0.4276 0.1762,-0.2534 0.5417,-0.7511 0.5417,-0.7506 0.295,-0.4738 0.9134,-1.3695 0.973,-1.4561 -0.2431,0.3691 -0.7008,1.0938 -0.7221,1.128 l 1.397,-1.8133 c 0.009,0.005 0.2706,-0.3188 0.3116,-0.3696 l -0.2846,0.3903 c 0.002,0.002 -0.0513,0.0721 -0.0513,0.0716 -0.534,0.7226 -0.2255,0.3079 -0.0685,0.0979 l -0.2576,0.3593 c 0.1441,-0.1638 0.4334,-0.4826 0.4334,-0.4826 5e-4,0 0.002,-0.003 0.002,-0.003 0.7367,-1.0181 1.4826,-1.903 2.3519,-2.8128 -0.9838,0.9466 0.3494,-0.4364 0.2877,-0.3856 0.2686,-0.2343 0.8072,-0.677 0.8066,-0.677 0.8113,-0.7444 2.5681,-2.0751 2.5681,-2.0746 -1.5551,1.0575 -3.5779,2.4939 -4.9334,3.8044 1.5411,-1.6111 1.6541,-1.6904 1.3472,-1.4587 z m -4.7219,4.0299 v -0.0114 l 0.0352,-0.0368 z m 0.0352,-0.0482 c 0.0752,-0.0773 0.1815,-0.181 0.1815,-0.181 0.005,-0.009 0.058,-0.0938 0.058,-0.0938 0.0119,0.005 0.0659,-0.1192 0.0659,-0.1197 l 0.072,-0.1172 z m 0.3774,-0.5117 0.0601,-0.0954 0.0472,-0.0497 z m 0.0601,-0.0954 c 0.1198,-0.1876 0.2525,-0.3867 0.2525,-0.3867 -0.0451,0.0539 -0.5137,0.6708 -0.5137,0.6708 0.002,0.002 -0.042,0.0622 -0.042,0.0622 0.1083,-0.1498 0.2136,-0.254 0.3032,-0.3463 z m -0.4727,0.5806 0.002,-0.002 z m -2.1031,4.0626 10e-4,-0.002 0.002,-0.004 10e-4,-0.003 z m -0.3344,0.7428 6e-4,-10e-4 z m 0.5138,-1.51 5e-4,-0.001 z m -1.1498,2.2435 5e-4,-0.002 z m -1.5945,5.4254 c -0.0534,0.338 -0.1037,0.677 -0.1338,0.8828 0.0627,-0.4111 0.1643,-0.9751 0.1903,-1.1176 l 0.0948,-0.3935 0.1721,-0.6713 -0.0726,0.2639 c 0.4453,-1.8201 0.5542,-2.1461 0.6641,-2.4509 l -0.451,1.6718 0.2027,-0.7196 c 0.1519,-0.6179 0.5526,-1.8309 0.5526,-1.8304 0.2011,-0.5095 -0.0347,0.3354 -0.0648,0.4381 0.0969,-0.2473 0.2965,-0.7242 0.2965,-0.7242 0.0363,-0.1047 0.4344,-1.2068 0.4655,-1.1918 0.028,0.0679 -0.169,0.6014 -0.2255,0.7802 -0.112,0.5344 -0.4733,1.6111 -0.7962,2.6344 0.0176,-0.0793 0.0544,-0.2379 0.0544,-0.2379 -0.002,0.006 -0.006,0.0171 -0.006,0.0166 0.0373,-0.1587 0.1151,-0.4738 0.1151,-0.4738 -0.4448,1.1746 -0.2245,0.4494 -0.1877,0.3229 0.4111,-1.2182 0.0472,-0.1628 -0.0373,0.0798 -0.0301,0.1032 -0.3188,1.1861 -0.3188,1.1861 0.0223,0.0104 -0.253,1.1378 -0.2628,1.1804 0.043,-0.3064 0.1431,-0.914 0.1431,-0.914 -0.0731,0.1727 -0.0664,0.1302 -0.0633,0.1125 -0.1918,0.7937 -0.4748,2.3965 -0.4748,2.396 -0.0456,0.3991 -0.1358,1.1985 -0.1358,1.1985 -0.0482,-0.1384 0.1073,-1.6158 0.143,-1.8719 z m -0.1338,0.8828 -0.0187,0.1291 -0.003,0.0212 -0.003,0.0239 -10e-4,0.0104 -0.002,0.0108 z m 0.4572,-2.1824 0.069,-0.2675 0.0715,-0.2477 z m 0.831,-2.6271 c -0.004,0.0109 -0.004,0.0134 -0.002,0.005 z m -0.8227,2.7712 5e-4,-0.002 z m 9.3521,27.4587 -5e-4,-5e-4 z m -0.8164,-0.1685 v -5e-4 l -0.003,-0.002 -5e-4,-5e-4 z m 30.3072,4.8101 h -6e-4 z m 2.6976,-1.4966 0.0114,-0.008 z m 2.2534,-0.8698 -0.001,0.001 -10e-4,5e-4 z m 10.9249,-27.382 v -10e-4 z m 0.1452,3.749 v -0.003 l -6e-4,-0.008 v -0.004 m -0.1498,0.6987 -0.005,-0.184 v -0.001 l -0.002,-0.0674 z m -0.3556,-4.1128 v -0.003 z m -0.072,2.8376 v -0.004 z M 319.681,154.77 v 0.002 z m 0.0414,-1.342 v 5e-4 z m -0.099,-1.9497 -0.004,-0.0332 -0.002,-0.0124 -5e-4,-0.003 v -0.001 m -8.3698,-14.4997 -0.006,-0.007 -0.003,-0.003 -0.002,-0.002 -5e-4,-0.001 z m 0.2478,0.1431 -0.003,-0.002 c -0.006,-0.007 -0.003,-0.003 0.003,0.002 z m -1.3597,-1.338 -0.002,-0.001 -0.008,-0.006 -5e-4,-5e-4 z m 0.9035,0.8388 c -0.3582,-0.3323 -0.2109,-0.197 -0.085,-0.0804 z m -1.9698,-1.5883 0.0109,0.007 z m -0.6889,-0.3354 0.0129,0.01 -0.002,-0.001 z m -2.2379,-1.4183 -0.0285,-0.0171 c 0.0135,0.0129 -1.2322,-0.5386 -1.2203,-0.5334 -0.5194,-0.2447 -1.5644,-0.6781 -1.6313,-0.705 0.2545,0.0891 0.7537,0.2757 0.7537,0.2757 0.6998,0.3199 0.4152,0.1784 0.1452,0.0534 0.65,0.2587 1.9097,0.8802 1.9097,0.8797 z m 3.5048,2.3752 c 0.6547,0.4681 0.8662,0.6485 0.9383,0.7076 z m -15.4416,-5.26 -0.2965,0.0249 0.1115,-0.0171 z m -0.2965,0.0249 -1.9595,0.1658 c 0.5081,0.0389 1.6055,-0.1135 1.9595,-0.1658 z m -5.9728,1.3203 c -5.7727,2.3254 -4.7038,1.8382 -2.61,0.9637 0.9014,-0.3277 1.736,-0.6625 2.61,-0.9637 z m 21.0868,5.5612 -0.002,-0.002 z m 6.8835,8.5642 6e-4,0.001 z m 0.3536,0.6453 5e-4,0.002 z m 0.1151,0.224 v 5e-4 z m -0.6034,-1.5386 0.003,0.007 z m -0.1732,-0.3685 0.004,0.007 z m -0.2234,-0.4329 10e-4,0.002 z m 2.0507,9.0219 -5e-4,-0.001 z m -0.0632,8.5875 c -0.0534,0.2561 -0.1488,0.6724 -0.1581,0.7138 l 0.0622,-0.3462 z m 0.0907,-1.0834 v -0.001 l 5e-4,-0.003 z m -0.2074,1.2099 -0.0476,0.24 0.0238,-0.1405 z m -0.1275,0.6387 -5e-4,0.001 z m -5e-4,0.001 -0.002,0.014 -0.1011,0.3857 0.0332,-0.1726 z m -0.009,-0.0669 0.001,-0.004 v -0.001 z m -18.9453,18.8987 h -5e-4 z m 0.5619,-0.0576 h -10e-4 z m 15.8107,-11.5225 -6e-4,0.001 z m 0.4919,-0.7595 -0.001,0.001 z m 0.7781,-1.3903 -5e-4,0.001 z m 1.3779,-1.6287 5e-4,-10e-4 z m -1.0477,2.2337 c 0.003,-0.007 0.004,-0.009 10e-4,-0.001 z m -3.398,4.9096 c -0.2156,0.3089 -0.3043,0.4105 -0.3649,0.4826 z m 0.1255,0.1923 -6e-4,0.001 z m -1.5868,1.9818 -5e-4,5e-4 -10e-4,0.001 z m 0.6858,-0.6014 -0.005,0.007 z m 0.1555,-0.2068 6e-4,-5e-4 z m -6.6093,5.1641 c -0.4256,0.2452 -0.8004,0.4583 -1.1322,0.6449 -0.7319,0.3857 -1.4805,0.7231 -2.2477,1.0305 2.9989,-1.7894 4.8547,-2.9019 6.0428,-3.6333 -0.817,0.6656 -1.6728,1.312 -2.4945,1.8527 z m 2.6629,-1.9579 c 1.6827,-1.0357 2.0274,-1.3094 2.3861,-1.6676 l -0.0736,0.0933 c 0.2307,-0.2292 0.678,-0.6993 0.678,-0.6988 0.027,-0.0415 0.0949,-0.1249 0.1022,-0.1337 -0.1732,0.1829 -0.5288,0.5365 -0.5283,0.5365 -0.2991,0.2395 -0.8786,0.6749 -0.9963,0.763 0.1586,-0.1218 0.6998,-0.5557 0.9092,-0.7236 -0.2835,0.2192 -0.7402,0.566 -0.7568,0.579 0.4914,-0.4458 1.439,-1.3711 1.439,-1.3706 0.0695,-0.0798 0.2063,-0.2395 0.2063,-0.2395 -0.0336,0.0441 -0.1016,0.1322 -0.1016,0.1322 0.1556,-0.1659 0.4588,-0.5018 0.4588,-0.5018 0.6672,-0.7081 0.4173,-0.437 0.1535,-0.1737 0.2996,-0.3416 0.8169,-1.0725 0.8377,-1.1015 l -0.1789,0.212 c 0.1281,-0.2073 -0.004,-0.0394 -0.1177,0.0944 -0.8879,1.0238 -0.8942,1.0403 -0.8662,0.9901 -0.0508,0.0508 -0.1524,0.1513 -0.1524,0.1513 0.042,0.004 -0.4805,0.5505 -0.6117,0.6864 -0.1192,0.0839 -0.6511,0.4821 -0.466,0.3431 0.085,-0.0803 0.2493,-0.2436 0.2493,-0.2436 -0.1632,0.1493 -0.4877,0.4505 -0.4877,0.4505 0.1114,-0.0643 -0.1353,0.1425 -0.1644,0.1658 0.003,0.005 -0.005,0.0192 -0.005,0.0192 6e-4,5e-4 0.003,0.003 0.003,0.003 -0.0601,0.0493 -0.1814,0.1472 -0.1814,0.1472 -0.536,0.4827 -1.1244,0.9907 -1.7345,1.4878 z m 2.3125,-1.5743 -5e-4,5e-4 z m 0.7802,-0.8325 5e-4,-6e-4 z m -0.6154,0.5759 0.083,-0.0669 -0.0114,0.0114 z m 0.083,-0.0669 5e-4,-5e-4 z m 2.1539,-2.609 10e-4,-0.001 z m -1.9445,2.1528 -0.0114,0.0119 c -0.1555,0.1214 -0.4541,0.3453 -0.5096,0.3873 z m -0.8512,0.6972 c -0.004,0.003 -0.004,0.003 0,-5e-4 z m -26.9802,5.3923 10e-4,0.001 0.003,10e-4 m 2.8837,0.7512 h 10e-4 l 0.001,5e-4 z m -19.7306,-20.0925 v 5e-4 z m -0.2773,-1.2151 v 0.001 z m 0.0902,1.2156 0.001,0.002 c -0.0187,-0.0788 -0.002,-0.0213 5e-4,0.002 l -5e-4,-0.002 5e-4,0.003 z m -0.0218,-0.0715 -0.001,-0.004 z m 1.3307,-15.0393 c 0.4266,-1.7392 0.1819,-0.6879 0.1892,-0.6775 z m -0.2297,0.818 c -1.1487,4.0615 -0.9647,2.9978 -0.6231,1.8055 5e-4,-0.004 0.008,-0.042 0.008,-0.042 l 0.0244,-0.1182 c 0.0394,-0.115 0.1576,-0.4634 0.1451,-0.4204 0.1104,-0.3416 0.2742,-0.7832 0.4458,-1.2249 z m -0.5878,1.6308 c 0.0788,-0.3561 0.1913,-0.6946 0.3043,-1.0435 -0.0399,0.1586 -0.1151,0.4759 -0.1151,0.4759 z m 0.142,-0.4059 -0.002,0.006 -0.003,0.0104 m 2.0533,-4.8515 -0.002,0.004 -6e-4,10e-4 z m 0.0177,-0.7346 5e-4,-5e-4 z m 0.9118,-1.2472 -10e-4,0.002 z m 1.0466,-1.2638 -5e-4,5e-4 z"
       style="fill:#ffffff;fill-rule:evenodd;stroke-width:1.008;stroke-dasharray:none"
       id="path4" />
    <path
       d="m 245.4429,212.186 v -4.8918 h 2.0795 c 0.523,0 0.9023,0.0445 1.139,0.1321 0.2369,0.0879 0.4271,0.2438 0.5694,0.4683 0.1423,0.2254 0.2129,0.4816 0.2129,0.771 0,0.3668 -0.108,0.6707 -0.3234,0.91 -0.2152,0.2381 -0.5386,0.3894 -0.968,0.451 0.2143,0.1252 0.3906,0.2619 0.5297,0.4113 0.1389,0.1491 0.3257,0.4132 0.5613,0.7937 l 0.5981,0.9544 h -1.1812 l -0.714,-1.065 c -0.254,-0.3804 -0.4272,-0.6194 -0.5205,-0.7186 -0.0935,-0.0989 -0.1924,-0.1664 -0.2973,-0.2038 -0.1046,-0.0366 -0.2699,-0.0547 -0.4978,-0.0547 h -0.1993 v 2.0421 z m 0.9884,-2.8233 h 0.7302 c 0.4737,0 0.7699,-0.0196 0.8884,-0.0593 0.1171,-0.0399 0.2095,-0.1094 0.2767,-0.2072 0.066,-0.0981 0.1003,-0.2199 0.1003,-0.3668 0,-0.1652 -0.0445,-0.2973 -0.1323,-0.3985 -0.0876,-0.1015 -0.2118,-0.1653 -0.3722,-0.1925 -0.08,-0.0105 -0.3201,-0.0162 -0.7212,-0.0162 h -0.7699 z m 5.9885,1.6957 0.9349,0.1562 c -0.1205,0.3427 -0.3096,0.6034 -0.5692,0.7823 -0.2588,0.18 -0.5834,0.2687 -0.9729,0.2687 -0.6159,0 -1.0715,-0.2004 -1.3677,-0.6035 -0.2336,-0.3223 -0.3509,-0.7302 -0.3509,-1.2208 0,-0.5879 0.1539,-1.048 0.4615,-1.3805 0.3061,-0.3325 0.6945,-0.4989 1.1639,-0.4989 0.5272,0 0.9431,0.1743 1.2481,0.5227 0.3041,0.3487 0.4498,0.8816 0.4374,1.6002 h -2.3497 c 0.007,0.278 0.0822,0.4943 0.2268,0.6482 0.1446,0.1548 0.3257,0.2322 0.5408,0.2322 0.1472,0 0.2702,-0.0397 0.3702,-0.1196 0.1004,-0.0808 0.1766,-0.2095 0.2268,-0.3872 z m 0.0536,-0.9474 c -0.007,-0.2724 -0.0765,-0.4785 -0.2098,-0.6196 -0.1332,-0.1412 -0.2959,-0.2121 -0.4873,-0.2121 -0.2049,0 -0.3736,0.0754 -0.5068,0.2245 -0.1332,0.148 -0.1993,0.3507 -0.197,0.6072 z m 1.6685,-1.468 h 0.8747 v 0.5204 c 0.1128,-0.1789 0.2665,-0.3234 0.4601,-0.434 0.1936,-0.1117 0.409,-0.1675 0.6446,-0.1675 0.4113,0 0.7608,0.1618 1.0468,0.4841 0.2869,0.3223 0.4303,0.7722 0.4303,1.3485 0,0.591 -0.1445,1.0511 -0.4325,1.3793 -0.2895,0.328 -0.6401,0.4918 -1.0514,0.4918 -0.1959,0 -0.3736,-0.0385 -0.5329,-0.1162 -0.1585,-0.0785 -0.3257,-0.2117 -0.5023,-0.4008 v 1.7858 h -0.9374 z m 0.9283,1.7115 c 0,0.3977 0.0785,0.6925 0.237,0.8816 0.157,0.1902 0.3495,0.286 0.5774,0.286 0.2174,0 0.3985,-0.0879 0.5431,-0.2619 0.1446,-0.1743 0.2174,-0.4615 0.2174,-0.8589 0,-0.3725 -0.0751,-0.648 -0.2242,-0.828 -0.1491,-0.18 -0.3336,-0.2699 -0.5536,-0.2699 -0.2287,0 -0.419,0.0876 -0.5706,0.2654 -0.1514,0.1766 -0.2265,0.4385 -0.2265,0.7857 z m 3.9736,-0.631 -0.8509,-0.1536 c 0.0958,-0.3427 0.2596,-0.5956 0.4932,-0.7608 0.2347,-0.1639 0.5808,-0.2472 1.0409,-0.2472 0.4192,0 0.7302,0.0502 0.9351,0.1494 0.2038,0.0989 0.3484,0.2242 0.4317,0.3767 0.0831,0.1528 0.1253,0.4317 0.1253,0.8396 l -0.0102,1.0945 c 0,0.3109 0.0148,0.5408 0.0454,0.6891 0.0297,0.1468 0.0867,0.3061 0.1686,0.4748 h -0.9283 c -0.0238,-0.0627 -0.0544,-0.1548 -0.0899,-0.2767 -0.0147,-0.0558 -0.0261,-0.0924 -0.0331,-0.1105 -0.1605,0.1559 -0.3314,0.2721 -0.5137,0.3506 -0.182,0.0777 -0.3767,0.1162 -0.5842,0.1162 -0.3643,0 -0.6525,-0.0989 -0.862,-0.2959 -0.2109,-0.1981 -0.3155,-0.4487 -0.3155,-0.7517 0,-0.1993 0.0479,-0.3782 0.1434,-0.5355 0.0958,-0.1571 0.2302,-0.2767 0.402,-0.3597 0.172,-0.0831 0.4215,-0.1562 0.7461,-0.2189 0.4373,-0.0819 0.7415,-0.1593 0.9099,-0.2299 v -0.0935 c 0,-0.1808 -0.0442,-0.3084 -0.1333,-0.3861 -0.0887,-0.0762 -0.2562,-0.1151 -0.5034,-0.1151 -0.1672,0 -0.2971,0.0332 -0.3906,0.0993 -0.0933,0.0649 -0.1684,0.18 -0.2265,0.3449 z m 1.2538,0.7608 c -0.1196,0.04 -0.3099,0.0879 -0.5706,0.1438 -0.2597,0.0555 -0.4292,0.1102 -0.5103,0.1627 -0.1219,0.0878 -0.1834,0.197 -0.1834,0.3302 0,0.1321 0.0491,0.2449 0.1471,0.3407 0.0978,0.0956 0.222,0.1435 0.3736,0.1435 0.1696,0 0.3303,-0.0559 0.4839,-0.1664 0.114,-0.0842 0.188,-0.188 0.2234,-0.311 0.0249,-0.0796 0.0363,-0.2321 0.0363,-0.4567 z m 1.8465,-2.3221 v -0.868 h 0.9371 v 0.868 z m 0,4.0238 v -3.543 h 0.9371 v 3.543 z m 2.7961,0 h -0.9375 v -3.543 h 0.8703 v 0.5031 c 0.1491,-0.2378 0.2834,-0.3951 0.4019,-0.4703 0.1197,-0.0751 0.254,-0.1139 0.4054,-0.1139 0.2143,0 0.4192,0.0592 0.6174,0.1777 l -0.2906,0.8167 c -0.157,-0.1015 -0.3039,-0.1528 -0.4394,-0.1528 -0.1323,0 -0.2426,0.0354 -0.3339,0.1083 -0.0921,0.0717 -0.1627,0.2027 -0.2151,0.3917 -0.0525,0.1891 -0.0785,0.5854 -0.0785,1.188 z m 5.362,-2.4157 c 0,0.2733 -0.0967,0.5068 -0.2892,0.6993 -0.1924,0.1925 -0.4237,0.2883 -0.6947,0.2883 -0.2744,0 -0.5069,-0.097 -0.6993,-0.2906 -0.1925,-0.1936 -0.2895,-0.426 -0.2895,-0.697 0,-0.271 0.097,-0.5034 0.2895,-0.6959 0.1924,-0.1925 0.4249,-0.288 0.6993,-0.288 0.271,0 0.5023,0.0955 0.6947,0.2869 0.1925,0.1913 0.2892,0.4237 0.2892,0.697 z m 2.5991,2.4157 v -4.8918 h 2.0795 c 0.5229,0 0.9022,0.0445 1.1389,0.1321 0.237,0.0879 0.4272,0.2438 0.5695,0.4683 0.1423,0.2254 0.2129,0.4816 0.2129,0.771 0,0.3668 -0.108,0.6707 -0.3235,0.91 -0.2151,0.2381 -0.5385,0.3894 -0.968,0.451 0.2143,0.1252 0.3906,0.2619 0.5298,0.4113 0.1389,0.1491 0.3257,0.4132 0.5613,0.7937 l 0.5981,0.9544 h -1.1812 l -0.7141,-1.065 c -0.2539,-0.3804 -0.4271,-0.6194 -0.5204,-0.7186 -0.0935,-0.0989 -0.1925,-0.1664 -0.2974,-0.2038 -0.1046,-0.0366 -0.2698,-0.0547 -0.4977,-0.0547 h -0.1993 v 2.0421 z m 0.9884,-2.8233 h 0.7302 c 0.4737,0 0.7699,-0.0196 0.8884,-0.0593 0.1171,-0.0399 0.2095,-0.1094 0.2766,-0.2072 0.0661,-0.0981 0.1004,-0.2199 0.1004,-0.3668 0,-0.1652 -0.0445,-0.2973 -0.1324,-0.3985 -0.0876,-0.1015 -0.2117,-0.1653 -0.3722,-0.1925 -0.0799,-0.0105 -0.32,-0.0162 -0.7211,-0.0162 h -0.7699 z m 5.9885,1.6957 0.9348,0.1562 c -0.1204,0.3427 -0.3095,0.6034 -0.5692,0.7823 -0.2588,0.18 -0.5833,0.2687 -0.9728,0.2687 -0.616,0 -1.0715,-0.2004 -1.3677,-0.6035 -0.2336,-0.3223 -0.351,-0.7302 -0.351,-1.2208 0,-0.5879 0.154,-1.048 0.4615,-1.3805 0.3062,-0.3325 0.6945,-0.4989 1.1639,-0.4989 0.5273,0 0.9431,0.1743 1.2481,0.5227 0.3042,0.3487 0.4499,0.8816 0.4374,1.6002 h -2.3496 c 0.007,0.278 0.0822,0.4943 0.2267,0.6482 0.1446,0.1548 0.3257,0.2322 0.5409,0.2322 0.1471,0 0.2701,-0.0397 0.3702,-0.1196 0.1003,-0.0808 0.1766,-0.2095 0.2268,-0.3872 z m 0.0535,-0.9474 c -0.007,-0.2724 -0.0765,-0.4785 -0.2097,-0.6196 -0.1332,-0.1412 -0.296,-0.2121 -0.4873,-0.2121 -0.2049,0 -0.3736,0.0754 -0.5068,0.2245 -0.1333,0.148 -0.1993,0.3507 -0.197,0.6072 z m 1.3658,1.0636 0.9405,-0.1435 c 0.04,0.1823 0.1208,0.3212 0.2438,0.4156 0.1219,0.0947 0.2928,0.1426 0.5136,0.1426 0.2427,0 0.4249,-0.0445 0.5468,-0.1344 0.0831,-0.0615 0.1242,-0.146 0.1242,-0.2494 0,-0.0717 -0.023,-0.131 -0.0672,-0.1778 -0.0468,-0.0445 -0.1516,-0.0853 -0.3132,-0.123 -0.7563,-0.1664 -1.2359,-0.3189 -1.4386,-0.4566 -0.2801,-0.1914 -0.4201,-0.4578 -0.4201,-0.7986 0,-0.3064 0.1205,-0.5649 0.3631,-0.7732 0.2427,-0.2095 0.6185,-0.3144 1.1276,-0.3144 0.4851,0 0.8462,0.0799 1.082,0.237 0.2359,0.1581 0.3974,0.3917 0.4862,0.7015 l -0.8836,0.1627 c -0.0377,-0.1377 -0.1094,-0.2434 -0.2154,-0.3163 -0.1058,-0.0743 -0.2563,-0.1105 -0.4521,-0.1105 -0.2472,0 -0.4235,0.034 -0.5307,0.1034 -0.0706,0.0491 -0.106,0.1128 -0.106,0.1902 0,0.0672 0.0309,0.123 0.0935,0.1698 0.0842,0.0627 0.3759,0.1503 0.8757,0.2642 0.4989,0.1128 0.8475,0.2517 1.0457,0.417 0.1958,0.1672 0.2936,0.3997 0.2936,0.697 0,0.3246 -0.1355,0.6047 -0.4076,0.8382 -0.271,0.2333 -0.6721,0.3495 -1.2039,0.3495 -0.4827,0 -0.8643,-0.0978 -1.1469,-0.2936 -0.2812,-0.1948 -0.4646,-0.4615 -0.551,-0.7974 z m 5.7549,-2.5316 v 0.7469 h -0.6401 v 1.4284 c 0,0.2891 0.006,0.4578 0.0182,0.5057 0.0127,0.0476 0.0399,0.0864 0.0833,0.1182 0.0431,0.0309 0.0967,0.0467 0.1582,0.0467 0.0878,0 0.2129,-0.0306 0.3781,-0.0898 l 0.0797,0.7265 c -0.2186,0.0935 -0.4646,0.14 -0.7413,0.14 -0.1687,0 -0.3212,-0.0283 -0.4567,-0.0842 -0.1357,-0.0569 -0.2347,-0.1309 -0.2984,-0.2211 -0.0638,-0.0898 -0.1072,-0.2117 -0.1321,-0.3653 -0.0193,-0.1083 -0.0298,-0.3291 -0.0298,-0.6608 v -1.5443 h -0.4303 v -0.7469 h 0.4303 v -0.7053 l 0.9408,-0.5465 v 1.2518 z m 0.434,1.7206 c 0,-0.3107 0.0773,-0.6126 0.2301,-0.9043 0.1537,-0.2902 0.3714,-0.5136 0.6526,-0.6661 0.2815,-0.1539 0.5955,-0.2313 0.9431,-0.2313 0.5351,0 0.9748,0.1743 1.3175,0.5227 0.343,0.3487 0.5139,0.7883 0.5139,1.3201 0,0.5352 -0.1732,0.9794 -0.5184,1.3326 -0.3461,0.3532 -0.7813,0.5283 -1.3062,0.5283 -0.3257,0 -0.6344,-0.0728 -0.9295,-0.2196 -0.2948,-0.1469 -0.5193,-0.3623 -0.673,-0.6458 -0.1528,-0.2837 -0.2301,-0.6287 -0.2301,-1.0366 z m 0.9612,0.0502 c 0,0.352 0.0833,0.6208 0.2506,0.8076 0.1664,0.1868 0.3724,0.28 0.6174,0.28 0.2449,0 0.4498,-0.0932 0.6151,-0.28 0.1661,-0.1868 0.2491,-0.4578 0.2491,-0.8144 0,-0.3461 -0.083,-0.6137 -0.2491,-0.8005 -0.1653,-0.1868 -0.3702,-0.2804 -0.6151,-0.2804 -0.245,0 -0.451,0.0936 -0.6174,0.2804 -0.1673,0.1868 -0.2506,0.4566 -0.2506,0.8073 z m 4.3279,1.7722 h -0.9374 v -3.543 h 0.8702 v 0.5031 c 0.1491,-0.2378 0.2835,-0.3951 0.402,-0.4703 0.1196,-0.0751 0.254,-0.1139 0.4054,-0.1139 0.2143,0 0.4192,0.0592 0.6173,0.1777 l -0.2905,0.8167 c -0.1571,-0.1015 -0.3039,-0.1528 -0.4394,-0.1528 -0.1324,0 -0.2426,0.0354 -0.3339,0.1083 -0.0921,0.0717 -0.1627,0.2027 -0.2152,0.3917 -0.0524,0.1891 -0.0785,0.5854 -0.0785,1.188 z m 3.8132,-1.1276 0.9349,0.1562 c -0.1205,0.3427 -0.3096,0.6034 -0.5692,0.7823 -0.2588,0.18 -0.5834,0.2687 -0.9729,0.2687 -0.616,0 -1.0715,-0.2004 -1.3677,-0.6035 -0.2336,-0.3223 -0.3509,-0.7302 -0.3509,-1.2208 0,-0.5879 0.1539,-1.048 0.4614,-1.3805 0.3062,-0.3325 0.6945,-0.4989 1.164,-0.4989 0.5272,0 0.943,0.1743 1.248,0.5227 0.3042,0.3487 0.4499,0.8816 0.4374,1.6002 h -2.3496 c 0.007,0.278 0.0822,0.4943 0.2268,0.6482 0.1445,0.1548 0.3257,0.2322 0.5408,0.2322 0.1471,0 0.2702,-0.0397 0.3702,-0.1196 0.1004,-0.0808 0.1766,-0.2095 0.2268,-0.3872 z m 0.0536,-0.9474 c -0.007,-0.2724 -0.0766,-0.4785 -0.2098,-0.6196 -0.1332,-0.1412 -0.2959,-0.2121 -0.4873,-0.2121 -0.2049,0 -0.3736,0.0754 -0.5068,0.2245 -0.1332,0.148 -0.1993,0.3507 -0.197,0.6072 z m 5.2959,-0.3407 c 0,0.2733 -0.0966,0.5068 -0.2891,0.6993 -0.1925,0.1925 -0.4238,0.2883 -0.6948,0.2883 -0.2744,0 -0.5068,-0.097 -0.6993,-0.2906 -0.1924,-0.1936 -0.2894,-0.426 -0.2894,-0.697 0,-0.271 0.097,-0.5034 0.2894,-0.6959 0.1925,-0.1925 0.4249,-0.288 0.6993,-0.288 0.271,0 0.5023,0.0955 0.6948,0.2869 0.1925,0.1913 0.2891,0.4237 0.2891,0.697 z m 2.5991,2.4157 v -4.8918 h 2.0795 c 0.523,0 0.9023,0.0445 1.139,0.1321 0.237,0.0879 0.4272,0.2438 0.5695,0.4683 0.1423,0.2254 0.2128,0.4816 0.2128,0.771 0,0.3668 -0.108,0.6707 -0.3234,0.91 -0.2151,0.2381 -0.5386,0.3894 -0.968,0.451 0.2143,0.1252 0.3906,0.2619 0.5298,0.4113 0.1389,0.1491 0.3257,0.4132 0.5612,0.7937 l 0.5981,0.9544 h -1.1812 l -0.714,-1.065 c -0.254,-0.3804 -0.4272,-0.6194 -0.5204,-0.7186 -0.0936,-0.0989 -0.1925,-0.1664 -0.2974,-0.2038 -0.1046,-0.0366 -0.2699,-0.0547 -0.4978,-0.0547 h -0.1992 v 2.0421 z m 0.9885,-2.8233 h 0.7302 c 0.4736,0 0.7699,-0.0196 0.8883,-0.0593 0.1171,-0.0399 0.2095,-0.1094 0.2767,-0.2072 0.0661,-0.0981 0.1004,-0.2199 0.1004,-0.3668 0,-0.1652 -0.0445,-0.2973 -0.1324,-0.3985 -0.0876,-0.1015 -0.2118,-0.1653 -0.3722,-0.1925 -0.0799,-0.0105 -0.32,-0.0162 -0.7211,-0.0162 h -0.7699 z m 5.9884,1.6957 0.9349,0.1562 c -0.1205,0.3427 -0.3095,0.6034 -0.5692,0.7823 -0.2588,0.18 -0.5834,0.2687 -0.9728,0.2687 -0.616,0 -1.0715,-0.2004 -1.3678,-0.6035 -0.2335,-0.3223 -0.3509,-0.7302 -0.3509,-1.2208 0,-0.5879 0.1539,-1.048 0.4615,-1.3805 0.3061,-0.3325 0.6945,-0.4989 1.1639,-0.4989 0.5272,0 0.9431,0.1743 1.2481,0.5227 0.3041,0.3487 0.4498,0.8816 0.4374,1.6002 h -2.3497 c 0.007,0.278 0.0822,0.4943 0.2268,0.6482 0.1446,0.1548 0.3257,0.2322 0.5409,0.2322 0.1471,0 0.2701,-0.0397 0.3702,-0.1196 0.1003,-0.0808 0.1766,-0.2095 0.2267,-0.3872 z m 0.0536,-0.9474 c -0.007,-0.2724 -0.0765,-0.4785 -0.2098,-0.6196 -0.1332,-0.1412 -0.2959,-0.2121 -0.4872,-0.2121 -0.205,0 -0.3736,0.0754 -0.5069,0.2245 -0.1332,0.148 -0.1992,0.3507 -0.197,0.6072 z m 1.6753,-1.9488 v -0.868 h 0.9374 v 0.868 z m 0.9374,0.4808 v 3.4324 c 0,0.4522 -0.0295,0.7711 -0.0876,0.9567 -0.0592,0.1857 -0.1732,0.3303 -0.3407,0.4351 -0.1684,0.1049 -0.3827,0.1574 -0.6423,0.1574 -0.0933,0 -0.1948,-0.009 -0.3016,-0.0253 -0.1083,-0.017 -0.2246,-0.0422 -0.3487,-0.0751 l 0.163,-0.8008 c 0.0442,0.008 0.0864,0.0162 0.1253,0.0219 0.0385,0.006 0.0751,0.008 0.108,0.008 0.0958,0 0.1743,-0.0204 0.2358,-0.0615 0.0615,-0.0411 0.1015,-0.0913 0.1219,-0.1491 0.0193,-0.057 0.0295,-0.2313 0.0295,-0.5207 v -3.3789 z m 3.3143,3.543 v -0.5307 c -0.1299,0.1891 -0.2994,0.3382 -0.5091,0.4476 -0.2106,0.108 -0.4329,0.1627 -0.6662,0.1627 -0.2381,0 -0.451,-0.0524 -0.64,-0.1559 -0.1891,-0.1048 -0.3257,-0.2517 -0.4113,-0.4408 -0.0842,-0.189 -0.1265,-0.4509 -0.1265,-0.7846 v -2.2413 h 0.9374 v 1.6273 c 0,0.4989 0.0171,0.8042 0.0525,0.9168 0.034,0.1116 0.0967,0.2004 0.1879,0.2667 0.091,0.066 0.2072,0.0978 0.3473,0.0978 0.1607,0 0.3041,-0.0434 0.4306,-0.131 0.1264,-0.0887 0.2128,-0.197 0.2596,-0.3268 0.0468,-0.131 0.0706,-0.4499 0.0706,-0.9567 v -1.4941 h 0.9374 v 3.543 z m 2.8153,0 -1.4281,-3.543 h 0.984 l 0.6672,1.8085 0.1936,0.6035 c 0.0513,-0.1537 0.0845,-0.2552 0.097,-0.3039 0.0317,-0.1004 0.0649,-0.2007 0.1003,-0.2996 l 0.6741,-1.8085 h 0.9646 l -1.4088,3.543 z m 4.8782,-1.1276 0.9348,0.1562 c -0.1204,0.3427 -0.3095,0.6034 -0.5691,0.7823 -0.2589,0.18 -0.5834,0.2687 -0.9729,0.2687 -0.616,0 -1.0715,-0.2004 -1.3677,-0.6035 -0.2336,-0.3223 -0.3509,-0.7302 -0.3509,-1.2208 0,-0.5879 0.1539,-1.048 0.4614,-1.3805 0.3062,-0.3325 0.6945,-0.4989 1.1639,-0.4989 0.5273,0 0.9431,0.1743 1.2481,0.5227 0.3042,0.3487 0.4499,0.8816 0.4374,1.6002 h -2.3496 c 0.007,0.278 0.0822,0.4943 0.2268,0.6482 0.1445,0.1548 0.3257,0.2322 0.5408,0.2322 0.1471,0 0.2701,-0.0397 0.3702,-0.1196 0.1004,-0.0808 0.1766,-0.2095 0.2268,-0.3872 z m 0.0536,-0.9474 c -0.007,-0.2724 -0.0766,-0.4785 -0.2098,-0.6196 -0.1332,-0.1412 -0.2959,-0.2121 -0.4873,-0.2121 -0.2049,0 -0.3736,0.0754 -0.5068,0.2245 -0.1332,0.148 -0.1993,0.3507 -0.197,0.6072 z m 4.9189,2.075 h -0.9374 v -1.8085 c 0,-0.3827 -0.0204,-0.6299 -0.0601,-0.7427 -0.04,-0.1117 -0.106,-0.1993 -0.1962,-0.2619 -0.0898,-0.0615 -0.1981,-0.0936 -0.3245,-0.0936 -0.1627,0 -0.3084,0.0445 -0.4371,0.1336 -0.1287,0.0898 -0.2177,0.2072 -0.2656,0.354 -0.0476,0.1468 -0.0717,0.4181 -0.0717,0.8144 v 1.6047 h -0.9372 v -3.543 h 0.87 v 0.5204 c 0.3098,-0.4011 0.6993,-0.6015 1.1687,-0.6015 0.2061,0 0.3963,0.0377 0.5669,0.1117 0.171,0.0751 0.3008,0.1698 0.3884,0.2857 0.0879,0.1162 0.1494,0.2472 0.1834,0.3943 0.0354,0.1468 0.0524,0.3563 0.0524,0.6299 z m 1.6515,-2.4625 -0.851,-0.1536 c 0.0958,-0.3427 0.2597,-0.5956 0.4933,-0.7608 0.2347,-0.1639 0.5808,-0.2472 1.0408,-0.2472 0.4193,0 0.7302,0.0502 0.9352,0.1494 0.2038,0.0989 0.3484,0.2242 0.4317,0.3767 0.0831,0.1528 0.1253,0.4317 0.1253,0.8396 l -0.0102,1.0945 c 0,0.3109 0.0147,0.5408 0.0453,0.6891 0.0298,0.1468 0.0868,0.3061 0.1687,0.4748 h -0.9283 c -0.0239,-0.0627 -0.0545,-0.1548 -0.0899,-0.2767 -0.0147,-0.0558 -0.0261,-0.0924 -0.0332,-0.1105 -0.1604,0.1559 -0.3313,0.2721 -0.5136,0.3506 -0.182,0.0777 -0.3767,0.1162 -0.5842,0.1162 -0.3643,0 -0.6526,-0.0989 -0.862,-0.2959 -0.2109,-0.1981 -0.3155,-0.4487 -0.3155,-0.7517 0,-0.1993 0.0479,-0.3782 0.1434,-0.5355 0.0958,-0.1571 0.2302,-0.2767 0.4019,-0.3597 0.1721,-0.0831 0.4216,-0.1562 0.7461,-0.2189 0.4374,-0.0819 0.7416,-0.1593 0.9099,-0.2299 v -0.0935 c 0,-0.1808 -0.0442,-0.3084 -0.1332,-0.3861 -0.0887,-0.0762 -0.2562,-0.1151 -0.5034,-0.1151 -0.1673,0 -0.2971,0.0332 -0.3906,0.0993 -0.0933,0.0649 -0.1684,0.18 -0.2265,0.3449 z m 1.2537,0.7608 c -0.1196,0.04 -0.3098,0.0879 -0.5706,0.1438 -0.2596,0.0555 -0.4291,0.1102 -0.5102,0.1627 -0.1219,0.0878 -0.1834,0.197 -0.1834,0.3302 0,0.1321 0.049,0.2449 0.1471,0.3407 0.0978,0.0956 0.222,0.1435 0.3736,0.1435 0.1695,0 0.3303,-0.0559 0.4839,-0.1664 0.1139,-0.0842 0.1879,-0.188 0.2234,-0.311 0.0249,-0.0796 0.0362,-0.2321 0.0362,-0.4567 z m 3.4705,-1.8413 v 0.7469 h -0.6401 v 1.4284 c 0,0.2891 0.006,0.4578 0.0182,0.5057 0.0127,0.0476 0.04,0.0864 0.0833,0.1182 0.0431,0.0309 0.0967,0.0467 0.1582,0.0467 0.0879,0 0.2129,-0.0306 0.3781,-0.0898 l 0.0797,0.7265 c -0.2186,0.0935 -0.4646,0.14 -0.7413,0.14 -0.1686,0 -0.3211,-0.0283 -0.4566,-0.0842 -0.1358,-0.0569 -0.2347,-0.1309 -0.2985,-0.2211 -0.0638,-0.0898 -0.1072,-0.2117 -0.1321,-0.3653 -0.0193,-0.1083 -0.0298,-0.3291 -0.0298,-0.6608 v -1.5443 h -0.4303 v -0.7469 h 0.4303 v -0.7053 l 0.9408,-0.5465 v 1.2518 z m 2.7028,2.4154 0.9349,0.1562 c -0.1205,0.3427 -0.3095,0.6034 -0.5692,0.7823 -0.2588,0.18 -0.5834,0.2687 -0.9728,0.2687 -0.616,0 -1.0715,-0.2004 -1.3678,-0.6035 -0.2335,-0.3223 -0.3509,-0.7302 -0.3509,-1.2208 0,-0.5879 0.1539,-1.048 0.4615,-1.3805 0.3061,-0.3325 0.6945,-0.4989 1.1639,-0.4989 0.5272,0 0.9431,0.1743 1.2481,0.5227 0.3041,0.3487 0.4499,0.8816 0.4374,1.6002 h -2.3497 c 0.007,0.278 0.0822,0.4943 0.2268,0.6482 0.1446,0.1548 0.3257,0.2322 0.5409,0.2322 0.1471,0 0.2701,-0.0397 0.3702,-0.1196 0.1003,-0.0808 0.1766,-0.2095 0.2267,-0.3872 z m 0.0536,-0.9474 c -0.007,-0.2724 -0.0765,-0.4785 -0.2098,-0.6196 -0.1332,-0.1412 -0.2959,-0.2121 -0.4872,-0.2121 -0.205,0 -0.3736,0.0754 -0.5069,0.2245 -0.1332,0.148 -0.1992,0.3507 -0.197,0.6072 z"
       style="fill:#ffffff;fill-rule:evenodd;stroke-width:1.008;stroke-dasharray:none"
       id="path5" />
  </g>
</svg>
